<?xml version="1.0" encoding="UTF-8"?>
<svg version="1.1" xmlns="http://www.w3.org/2000/svg" width="500" height="500">
<path d="M0 0 C165 0 330 0 500 0 C500 165 500 330 500 500 C335 500 170 500 0 500 C0 335 0 170 0 0 Z " fill="#A5A6A6" transform="translate(0,0)"/>
<path d="M0 0 C8.23431544 5.13779766 10.11260757 14.27918944 13.0078125 23.08984375 C13.31882904 24.02435867 13.62984558 24.9588736 13.95028687 25.92170715 C14.96624935 28.97885293 15.97547111 32.03817448 16.984375 35.09765625 C17.70319366 37.26676808 18.42227334 39.43579343 19.14160156 41.60473633 C24.1569991 56.74591118 29.11343413 71.90625559 34.03662109 87.07763672 C38.97951518 102.30886097 43.96548593 117.52582612 48.95887375 132.74055099 C56.62882479 156.11122127 64.27349568 179.48996552 71.87211609 202.88394165 C72.77617273 205.6664147 73.68419585 208.44711879 74.609375 211.22265625 C75.2377616 216.5381888 75.04817288 221.10739888 71.96615791 225.61616898 C67.87811064 230.4565866 60.96802517 232.33305518 55.13330078 234.21191406 C54.3141217 234.48250137 53.49494263 234.75308868 52.65093994 235.03187561 C49.95453349 235.920501 47.25470915 236.79820802 44.5546875 237.67578125 C42.65139046 238.30044481 40.74830784 238.92576205 38.84542847 239.55169678 C33.82999965 241.1994063 28.81156311 242.83776417 23.79248047 244.4743042 C18.77505337 246.11229827 13.76074603 247.75978491 8.74609375 249.40625 C0.20049178 252.21086909 -8.35003647 255.00002994 -16.90374374 257.7798233 C-21.48550936 259.27047601 -26.06258212 260.77362317 -30.63191795 262.30195999 C-32.42679673 262.90164511 -34.22350707 263.49583986 -36.02029419 264.08978271 C-38.04884452 264.76037177 -40.07466194 265.43932966 -42.09664917 266.12945557 C-47.41663388 267.87235497 -51.78458067 268.70253916 -57.390625 268.22265625 C-60.703125 266.41015625 -60.703125 266.41015625 -63.390625 264.22265625 C-63.9475 263.78953125 -64.504375 263.35640625 -65.078125 262.91015625 C-68.71293766 258.23682569 -70.13968981 252.00409419 -71.69921875 246.390625 C-74.29431471 237.32144821 -77.33441453 228.43527289 -80.453125 219.53515625 C-83.67154757 210.34725685 -86.74341765 201.19214412 -89.35131836 191.80786133 C-91.16592611 185.54816792 -93.27596486 179.38699241 -95.36230469 173.21359253 C-96.70679985 169.23456372 -98.04114364 165.25213686 -99.375 161.26953125 C-99.63873413 160.48247299 -99.90246826 159.69541473 -100.17419434 158.88450623 C-102.31001791 152.49620422 -104.36646801 146.08470164 -106.390625 139.66015625 C-108.6256443 132.57672659 -110.95218584 125.53027201 -113.37109375 118.5078125 C-113.6347171 117.74238632 -113.89834045 116.97696014 -114.16995239 116.18833923 C-115.47014567 112.41919891 -116.77676371 108.6524152 -118.09179688 104.88842773 C-120.81906139 97.04581561 -123.33767978 89.179013 -125.63668823 81.19998169 C-127.56344584 74.53714277 -129.80099862 67.99922531 -132.14648438 61.47265625 C-133.84122405 56.57094764 -134.91096096 52.48605459 -134.390625 47.22265625 C-130.71814399 40.28574768 -125.95214975 37.1069225 -118.609375 34.734375 C-117.6043972 34.40431206 -117.6043972 34.40431206 -116.57911682 34.06758118 C-114.35267545 33.33866245 -112.12175792 32.62457223 -109.890625 31.91015625 C-108.31269762 31.39632338 -106.73515034 30.88132202 -105.15795898 30.36523438 C-102.63139519 29.53893619 -100.10450085 28.71375949 -97.57627869 27.89254761 C-90.85823648 25.71011981 -84.15513308 23.48501356 -77.45703125 21.2421875 C-76.45751434 20.9076506 -75.45799744 20.57311371 -74.42819214 20.22843933 C-70.46921049 18.90299413 -66.51044579 17.57690186 -62.55175781 16.25057983 C-53.13740775 13.09894492 -43.72563869 9.97909221 -34.22290039 7.10351562 C-31.39623457 6.22440087 -28.60257542 5.27846413 -25.80859375 4.30078125 C-24.93912109 3.99785156 -24.06964844 3.69492187 -23.17382812 3.3828125 C-21.42107022 2.76822621 -19.67110604 2.14562219 -17.92382812 1.515625 C-11.82452304 -0.58884024 -6.35966456 -2.06793014 0 0 Z " fill="#012E46" transform="translate(409.390625,41.77734375)"/>
<path d="M0 0 C2.7761097 -0.36914349 2.7761097 -0.36914349 6.39065552 -0.36076355 C7.05389985 -0.36332682 7.71714418 -0.3658901 8.40048683 -0.36853105 C10.63328309 -0.37349088 12.86541009 -0.35694078 15.09814453 -0.34057617 C16.69447819 -0.33973037 18.29081302 -0.34020412 19.887146 -0.34190369 C24.22996578 -0.3427669 28.57253862 -0.32508858 32.91530085 -0.30418181 C37.45034704 -0.28546919 41.98539845 -0.28366886 46.52047729 -0.28010559 C55.11237915 -0.27076916 63.70416693 -0.24613383 72.29601848 -0.21605712 C82.07579017 -0.18256274 91.8555672 -0.16603961 101.63538194 -0.15097082 C121.75698504 -0.11958562 141.87848534 -0.06679416 162 0 C162.44344757 0.7771788 162.88689514 1.5543576 163.34378052 2.35508728 C165.0299004 5.3095823 166.71648191 8.26381287 168.40335083 11.21788025 C169.12573723 12.4831393 169.84795289 13.74849585 170.56997681 15.01396179 C181.83062637 35.28921549 181.83062637 35.28921549 194 55 C193.97555677 57.62153657 193.81399243 60.03427907 193.5 62.625 C193.4081543 63.40407715 193.31630859 64.1831543 193.22167969 64.98583984 C189.70848165 91.66645446 180.82817842 117.47184204 166 140 C165.30793457 141.12301514 164.61586914 142.24603027 163.90283203 143.40307617 C160.93721192 147.52028172 157.68489699 149.0648353 153.03515625 150.859375 C152.25793213 151.17488815 151.48070801 151.49040131 150.67993164 151.81547546 C148.15166483 152.8246801 145.61052277 153.79184848 143.0625 154.75 C142.19196991 155.0828299 141.32143982 155.41565979 140.42453003 155.75857544 C124.20268197 161.89444676 109.3992397 164.65508115 92 165 C89.94529279 165.081536 87.89060444 165.16354905 85.8359375 165.24609375 C63.63916574 165.88976913 41.57683106 164.5782065 21.31738281 155.02880859 C18.91843482 153.96378891 16.50707443 153.08570243 14.0234375 152.23828125 C4.97645647 149.14330886 -1.31443686 146.80392653 -6 138 C-6.68052487 136.84010742 -7.36297085 135.68134079 -8.046875 134.5234375 C-17.31568043 118.33945562 -24.72244111 100.16086405 -29 82 C-29.21011719 81.18789063 -29.42023438 80.37578125 -29.63671875 79.5390625 C-30.1875 77.1875 -30.1875 77.1875 -30.56640625 74.75390625 C-30.97258455 71.86841429 -30.97258455 71.86841429 -31.90234375 68.58984375 C-34.97132907 53.98801286 -25.66397791 42.38359724 -18.24072266 30.59765625 C-14.70975265 24.97096458 -11.43828763 19.19405671 -8.125 13.4375 C-6.98429233 11.47639574 -5.84127751 9.51663054 -4.6953125 7.55859375 C-4.22109863 6.74704834 -3.74688477 5.93550293 -3.25830078 5.09936523 C-2.22128465 3.36919416 -1.11891354 1.67837031 0 0 Z " fill="#D4E8F1" transform="translate(100,256)"/>
<path d="M0 0 C2.89360359 0.45994906 4.16049393 0.93404399 5.94140625 3.30859375 C6.39573288 6.15687226 6.2207041 8.37596632 5.94140625 11.30859375 C5.28140625 11.96859375 4.62140625 12.62859375 3.94140625 13.30859375 C3.86171402 15.38046116 3.86171402 15.38046116 4.21875 17.73828125 C4.32815918 18.63385742 4.43756836 19.52943359 4.55029297 20.45214844 C4.67936035 21.39477539 4.80842773 22.33740234 4.94140625 23.30859375 C5.12533936 24.68772949 5.12533936 24.68772949 5.31298828 26.09472656 C5.69501184 28.87671678 6.09613244 31.65526886 6.50390625 34.43359375 C6.64248047 35.39007813 6.78105469 36.3465625 6.92382812 37.33203125 C7.26107084 39.6578431 7.60028885 41.98334759 7.94140625 44.30859375 C8.78445312 44.28539062 9.6275 44.2621875 10.49609375 44.23828125 C12.13964844 44.21121094 12.13964844 44.21121094 13.81640625 44.18359375 C15.45222656 44.14878906 15.45222656 44.14878906 17.12109375 44.11328125 C19.94140625 44.30859375 19.94140625 44.30859375 21.94140625 46.30859375 C22.50660628 48.96396747 22.67928823 51.60004088 22.94140625 54.30859375 C26.54722318 55.3495448 30.1507753 56.36354514 33.78125 57.31640625 C55.41439516 63.11804637 74.52990455 73.4900705 86.35546875 93.2265625 C96.7537653 111.4940146 101.46358054 131.58104304 103.94140625 152.30859375 C104.12445313 153.24703125 104.3075 154.18546875 104.49609375 155.15234375 C105.13411112 160.44321948 104.44933538 163.95374539 101.32421875 168.25 C98.64129143 171.62856009 95.7920827 174.84285472 92.84913731 177.99641991 C90.8494171 180.27893365 90.8494171 180.27893365 89.40003109 183.07030678 C86.76222923 187.62410996 84.75911921 190.74981379 79.59132576 192.33843613 C75.33807658 192.74349384 71.2040592 192.79786965 66.93774414 192.73193359 C65.31567139 192.74685613 63.69363595 192.76645155 62.07167053 192.79034424 C57.68231448 192.84034358 53.29581315 192.82111889 48.9064095 192.7861743 C44.30345158 192.75823938 39.70073104 192.78417642 35.09776306 192.80142212 C27.36787218 192.82141286 19.63913878 192.79512379 11.90942383 192.74267578 C2.98689893 192.68283134 -5.93286031 192.70218781 -14.85531801 192.76276624 C-22.52968169 192.81277509 -30.20321534 192.81968464 -37.87768942 192.79094088 C-42.45526106 192.7738367 -47.03153515 192.77137391 -51.60902214 192.80784225 C-55.91543359 192.83975664 -60.21830147 192.81735146 -64.52433205 192.75400543 C-66.09919234 192.73952934 -67.67435387 192.74352287 -69.2490921 192.76789474 C-81.10939829 192.93445203 -81.10939829 192.93445203 -85.94734383 188.89903641 C-88.23366027 186.13445004 -90.16823559 183.35310626 -92.05859375 180.30859375 C-93.04036102 179.02463584 -94.03468997 177.74989594 -95.0546875 176.49609375 C-95.87026326 175.43495462 -96.68415266 174.37251656 -97.49609375 173.30859375 C-97.91568359 172.76332031 -98.33527344 172.21804687 -98.76757812 171.65625 C-105.43330976 162.95996853 -104.69960244 156.15974642 -103.40625 145.62890625 C-100.23511306 122.52646532 -93.88008547 99.13050396 -78.05859375 81.30859375 C-77.52878906 80.69757813 -76.99898437 80.0865625 -76.453125 79.45703125 C-63.88898842 65.90805736 -43.92763823 58.48002087 -26.05859375 55.30859375 C-24.73859375 55.30859375 -23.41859375 55.30859375 -22.05859375 55.30859375 C-22.08179688 54.68210938 -22.105 54.055625 -22.12890625 53.41015625 C-22.14695312 52.59289062 -22.165 51.775625 -22.18359375 50.93359375 C-22.20679688 50.12148437 -22.23 49.309375 -22.25390625 48.47265625 C-22.05859375 46.30859375 -22.05859375 46.30859375 -20.05859375 44.30859375 C-17.45703125 44.11328125 -17.45703125 44.11328125 -14.43359375 44.18359375 C-13.43070312 44.20164063 -12.4278125 44.2196875 -11.39453125 44.23828125 C-10.23824219 44.27308594 -10.23824219 44.27308594 -9.05859375 44.30859375 C-8.72309377 40.09202087 -8.40201516 35.87467164 -8.09423828 31.65600586 C-7.9875191 30.22113569 -7.87686921 28.78655221 -7.76220703 27.35229492 C-7.59803724 25.29017962 -7.44804796 23.22744524 -7.30078125 21.1640625 C-7.20651855 19.92293701 -7.11225586 18.68181152 -7.01513672 17.40307617 C-6.78091874 14.1368976 -6.78091874 14.1368976 -9.05859375 11.30859375 C-9.38073873 7.76499892 -9.41641695 5.18078779 -8.05859375 1.87109375 C-5.44922435 -0.16747609 -3.25020537 -0.19752629 0 0 Z " fill="#D4E8F1" transform="translate(181.05859375,59.69140625)"/>
<path d="M0 0 C8.23431544 5.13779766 10.11260757 14.27918944 13.0078125 23.08984375 C13.31882904 24.02435867 13.62984558 24.9588736 13.95028687 25.92170715 C14.96624935 28.97885293 15.97547111 32.03817448 16.984375 35.09765625 C17.70319366 37.26676808 18.42227334 39.43579343 19.14160156 41.60473633 C24.1569991 56.74591118 29.11343413 71.90625559 34.03662109 87.07763672 C38.97951518 102.30886097 43.96548593 117.52582612 48.95887375 132.74055099 C56.62882479 156.11122127 64.27349568 179.48996552 71.87211609 202.88394165 C72.77617273 205.6664147 73.68419585 208.44711879 74.609375 211.22265625 C75.2377616 216.5381888 75.04817288 221.10739888 71.96615791 225.61616898 C67.87811064 230.4565866 60.96802517 232.33305518 55.13330078 234.21191406 C54.3141217 234.48250137 53.49494263 234.75308868 52.65093994 235.03187561 C49.95453349 235.920501 47.25470915 236.79820802 44.5546875 237.67578125 C42.65139046 238.30044481 40.74830784 238.92576205 38.84542847 239.55169678 C33.82999965 241.1994063 28.81156311 242.83776417 23.79248047 244.4743042 C18.77505337 246.11229827 13.76074603 247.75978491 8.74609375 249.40625 C0.20049178 252.21086909 -8.35003647 255.00002994 -16.90374374 257.7798233 C-21.48550936 259.27047601 -26.06258212 260.77362317 -30.63191795 262.30195999 C-32.42679673 262.90164511 -34.22350707 263.49583986 -36.02029419 264.08978271 C-38.04884452 264.76037177 -40.07466194 265.43932966 -42.09664917 266.12945557 C-47.41663388 267.87235497 -51.78458067 268.70253916 -57.390625 268.22265625 C-60.703125 266.41015625 -60.703125 266.41015625 -63.390625 264.22265625 C-63.9475 263.78953125 -64.504375 263.35640625 -65.078125 262.91015625 C-68.71293766 258.23682569 -70.13968981 252.00409419 -71.69921875 246.390625 C-74.29431471 237.32144821 -77.33441453 228.43527289 -80.453125 219.53515625 C-83.67154757 210.34725685 -86.74341765 201.19214412 -89.35131836 191.80786133 C-91.16592611 185.54816792 -93.27596486 179.38699241 -95.36230469 173.21359253 C-96.70679985 169.23456372 -98.04114364 165.25213686 -99.375 161.26953125 C-99.63873413 160.48247299 -99.90246826 159.69541473 -100.17419434 158.88450623 C-102.31001791 152.49620422 -104.36646801 146.08470164 -106.390625 139.66015625 C-108.6256443 132.57672659 -110.95218584 125.53027201 -113.37109375 118.5078125 C-113.6347171 117.74238632 -113.89834045 116.97696014 -114.16995239 116.18833923 C-115.47014567 112.41919891 -116.77676371 108.6524152 -118.09179688 104.88842773 C-120.81906139 97.04581561 -123.33767978 89.179013 -125.63668823 81.19998169 C-127.56344584 74.53714277 -129.80099862 67.99922531 -132.14648438 61.47265625 C-133.84122405 56.57094764 -134.91096096 52.48605459 -134.390625 47.22265625 C-130.71814399 40.28574768 -125.95214975 37.1069225 -118.609375 34.734375 C-117.6043972 34.40431206 -117.6043972 34.40431206 -116.57911682 34.06758118 C-114.35267545 33.33866245 -112.12175792 32.62457223 -109.890625 31.91015625 C-108.31269762 31.39632338 -106.73515034 30.88132202 -105.15795898 30.36523438 C-102.63139519 29.53893619 -100.10450085 28.71375949 -97.57627869 27.89254761 C-90.85823648 25.71011981 -84.15513308 23.48501356 -77.45703125 21.2421875 C-76.45751434 20.9076506 -75.45799744 20.57311371 -74.42819214 20.22843933 C-70.46921049 18.90299413 -66.51044579 17.57690186 -62.55175781 16.25057983 C-53.13740775 13.09894492 -43.72563869 9.97909221 -34.22290039 7.10351562 C-31.39623457 6.22440087 -28.60257542 5.27846413 -25.80859375 4.30078125 C-24.93912109 3.99785156 -24.06964844 3.69492187 -23.17382812 3.3828125 C-21.42107022 2.76822621 -19.67110604 2.14562219 -17.92382812 1.515625 C-11.82452304 -0.58884024 -6.35966456 -2.06793014 0 0 Z M-24.54052734 11.60595703 C-25.31257507 11.85966568 -26.0846228 12.11337433 -26.88006592 12.37477112 C-29.41611403 13.21126545 -31.94619499 14.06446078 -34.4765625 14.91796875 C-36.260124 15.50997762 -38.04403578 16.10093212 -39.82827759 16.69088745 C-44.5233475 18.24644455 -49.21353553 19.81623758 -53.90283203 21.38909912 C-58.615961 22.96720953 -63.3335436 24.53187978 -68.05078125 26.09765625 C-73.3865434 27.87010895 -78.7217682 29.64412134 -84.05429077 31.42630005 C-84.86880014 31.69835707 -85.68330952 31.97041409 -86.52250099 32.25071526 C-88.12281514 32.78691321 -89.7222822 33.32564689 -91.32083702 33.86706734 C-95.33883836 35.22442066 -99.3636484 36.52814867 -103.42510986 37.74993896 C-104.24206141 38.00272047 -105.05901295 38.25550198 -105.9007206 38.51594353 C-107.44200885 38.99137796 -108.98815694 39.45146341 -110.5396328 39.892519 C-115.84489557 41.5536179 -118.1992783 43.66072747 -121.390625 48.22265625 C-123.92732327 53.2960528 -122.1094272 58.94515518 -120.421875 64.03125 C-120.01582031 65.27197266 -119.60976563 66.51269531 -119.19140625 67.79101562 C-118.75803713 69.08080466 -118.32444058 70.37051731 -117.890625 71.66015625 C-117.45608449 72.97690148 -117.02248184 74.2939566 -116.58984375 75.61132812 C-115.53261046 78.81826911 -114.46596185 82.02174961 -113.390625 85.22265625 C-112.21886719 84.04703125 -112.21886719 84.04703125 -111.0234375 82.84765625 C-109.45715663 81.2860231 -107.8762371 79.73852647 -106.265625 78.22265625 C-104.12095046 75.93500341 -102.71759502 74.07982593 -101.390625 71.22265625 C-101.67208898 67.83184809 -101.67208898 67.83184809 -102.703125 64.41015625 C-103.00863281 63.24871094 -103.31414062 62.08726563 -103.62890625 60.890625 C-103.88027344 60.01019531 -104.13164062 59.12976563 -104.390625 58.22265625 C-78.75393677 49.67709351 -78.75393677 49.67709351 -53.11724854 41.13153076 C-52.46496277 40.91410217 -51.812677 40.69667358 -51.140625 40.47265625 C-46.890625 39.05598958 -42.640625 37.63932292 -38.390625 36.22265625 C-38.25930176 36.83101318 -38.12797852 37.43937012 -37.99267578 38.06616211 C-37.81720215 38.86932861 -37.64172852 39.67249512 -37.4609375 40.5 C-37.20207764 41.6909729 -37.20207764 41.6909729 -36.93798828 42.90600586 C-36.26706896 45.7455926 -35.37599289 48.47770284 -34.390625 51.22265625 C-35.55207031 51.46113281 -36.71351563 51.69960937 -37.91015625 51.9453125 C-44.34318338 53.38704592 -50.67488041 55.14029474 -56.98461914 57.04174805 C-58.38094689 57.45421431 -59.78218376 57.85040937 -61.18774414 58.23022461 C-69.81526086 60.46400774 -69.81526086 60.46400774 -76.64697266 65.88330078 C-78.87101728 69.8706714 -80.40348558 73.76842676 -81.390625 78.22265625 C-74.31402395 76.41304725 -67.40006198 74.29072245 -60.51928711 71.84887695 C-57.2290776 70.71031022 -54.93153077 70.22265625 -51.390625 70.22265625 C-49.740625 74.51265625 -48.090625 78.80265625 -46.390625 83.22265625 C-48.10016357 83.39873413 -48.10016357 83.39873413 -49.84423828 83.57836914 C-64.14733633 85.38249609 -87.56660546 90.51413687 -97.14453125 101.84375 C-101.59973913 108.81312078 -102.77931298 114.08942509 -101.390625 122.22265625 C-100.7145995 124.60498005 -99.98059801 126.9713324 -99.20092773 129.32177734 C-98.97954636 129.99465286 -98.75816498 130.66752838 -98.53007507 131.36079407 C-97.80029255 133.57442256 -97.06225916 135.78520626 -96.32421875 137.99609375 C-95.80617831 139.56269502 -95.2886974 141.12948141 -94.77174377 142.69644165 C-93.40720871 146.82804395 -92.03583918 150.95734424 -90.66278076 155.08612061 C-88.49463902 161.61020578 -86.33762076 168.13798573 -84.17862511 174.66510201 C-83.38826903 177.05390813 -82.59718932 179.44247387 -81.80610657 181.83103943 C-77.32249821 195.37854806 -72.95355335 208.96099325 -68.64907837 222.56652832 C-67.23766872 227.02426403 -65.79329765 231.46970965 -64.328125 235.91015625 C-63.94591797 237.13025391 -63.56371094 238.35035156 -63.16992188 239.60742188 C-61.17673379 245.58044037 -59.38028253 250.24295292 -54.52954102 254.37817383 C-47.38721933 257.19809059 -40.19061019 254.19624334 -33.34765625 251.86328125 C-31.77947395 251.34480621 -31.77947395 251.34480621 -30.17961121 250.81585693 C-26.85029503 249.71257338 -23.52668804 248.59313732 -20.203125 247.47265625 C-17.9893062 246.73455464 -15.77511641 245.99756479 -13.56054688 245.26171875 C-10.3442256 244.19287706 -7.1281211 243.12345459 -3.9133606 242.04992676 C2.16747229 240.02130428 8.25945568 238.05353263 14.39575195 236.19824219 C20.99036262 234.19626207 27.55880117 232.11126379 34.12353516 230.01367188 C35.79377282 229.48218788 37.46535261 228.954905 39.13818359 228.43164062 C41.59031948 227.66394922 44.03761558 226.8822902 46.484375 226.09765625 C47.2271167 225.86836426 47.9698584 225.63907227 48.73510742 225.40283203 C53.64929266 223.80539588 57.94556801 222.01124627 60.7170105 217.3662262 C64.28071948 208.80575627 60.0929781 199.29673104 57.2890625 191.1015625 C56.83291843 189.73221498 56.37814185 188.36241129 55.92463684 186.9921875 C54.96113218 184.09023744 53.98857646 181.19155494 53.00839233 178.29519653 C51.46596451 173.73736967 49.94385902 169.1729202 48.42504883 164.60717773 C46.65338591 159.28530612 44.87745767 153.96490565 43.09477711 148.64671421 C39.70697639 138.53900145 36.38357494 128.41132285 33.10095215 118.26895142 C31.75469384 114.11035807 30.40259558 109.95366494 29.05078125 105.796875 C28.78151825 104.96850632 28.51225525 104.14013763 28.23483276 103.28666687 C25.91877716 96.16495021 23.59119408 89.04702446 21.26171875 81.9296875 C20.88599228 80.78152054 20.51026581 79.63335358 20.12315369 78.45039368 C18.29760761 72.8722588 16.47114828 67.29442537 14.64331055 61.71704102 C14.30726303 60.68976395 13.97121552 59.66248688 13.62498474 58.6040802 C12.95644803 56.56308306 12.28554207 54.52286037 11.61219788 52.48344421 C9.85520676 47.13989733 8.16795514 41.78481681 6.56933594 36.39160156 C6.22901337 35.26650177 5.8886908 34.14140198 5.53805542 32.98220825 C4.89321208 30.84288853 4.26448938 28.6986121 3.6555481 26.54879761 C1.60300527 19.80622267 -1.14217978 14.99817773 -6.390625 10.22265625 C-12.11113114 7.36240318 -18.86904614 9.66375659 -24.54052734 11.60595703 Z " fill="#2A56F0" transform="translate(409.390625,41.77734375)"/>
<path d="M0 0 C1.16053391 0.00031723 1.16053391 0.00031723 2.34451294 0.00064087 C22.72517317 0.05627602 42.31608616 2.91758399 57.89453125 17.23046875 C72.72405715 32.34354199 75.875 55.28188167 75.875 75.375 C25.385 75.375 -25.105 75.375 -77.125 75.375 C-77.125 68.8049466 -77.03406684 62.99278286 -75.9375 56.625 C-75.80512939 55.852771 -75.67275879 55.08054199 -75.53637695 54.28491211 C-72.46032412 37.54020004 -65.53377382 20.67405288 -51.1875 10.6875 C-35.75913501 1.40504963 -17.58895119 -0.04433775 0 0 Z " fill="#022D44" transform="translate(181.125,141.625)"/>
<path d="M0 0 C1.68410728 0.0219342 1.68410728 0.0219342 3.40223694 0.04431152 C4.59301849 0.02868668 5.78380005 0.01306183 7.01066589 -0.0030365 C10.2697858 -0.03640825 13.52631962 -0.03378162 16.78546786 -0.01219869 C19.50919674 0.00101169 22.23256836 -0.01112904 24.95628315 -0.02340406 C31.38376015 -0.0522028 37.81028126 -0.04065813 44.23768616 -0.00256348 C50.86123481 0.03611748 57.4824921 0.01325261 64.10587925 -0.04109198 C69.7996301 -0.08599218 75.49267949 -0.09575837 81.18657643 -0.07682222 C84.58422183 -0.06567572 87.98063418 -0.06696324 91.37815666 -0.10075569 C95.16907515 -0.12833225 98.95532893 -0.09836909 102.74598694 -0.05334473 C103.8667009 -0.07313385 104.98741486 -0.09292297 106.14208984 -0.11331177 C113.58938322 0.05873875 113.58938322 0.05873875 116.64560795 3.07760525 C118.18743063 5.35932718 119.44734928 7.61592578 120.6388092 10.09533691 C121.18931946 11.01403564 121.73982971 11.93273437 122.30702209 12.87927246 C122.7374884 13.65569092 123.16795471 14.43210937 123.61146545 15.23205566 C124.11266907 16.12900146 124.61387268 17.02594727 125.13026428 17.95007324 C125.64870911 18.88488525 126.16715393 19.81969727 126.7013092 20.78283691 C131.87240908 30.03809828 137.19547922 39.18852269 142.67616272 48.26403809 C143.45624695 49.56691772 143.45624695 49.56691772 144.25209045 50.89611816 C144.71397766 51.66093506 145.17586487 52.42575195 145.65174866 53.21374512 C146.6388092 55.09533691 146.6388092 55.09533691 146.6388092 57.09533691 C84.9288092 57.42533691 23.2188092 57.75533691 -40.3611908 58.09533691 C-38.70807933 53.13600251 -36.84700319 49.231885 -34.1736908 44.84533691 C-33.2791016 43.35266158 -32.38597341 41.85911004 -31.4940033 40.36486816 C-30.75392029 39.12664307 -30.75392029 39.12664307 -29.99888611 37.86340332 C-26.14101851 31.34275591 -22.39587272 24.75525012 -18.6280365 18.18225098 C-17.71284241 16.59041992 -17.71284241 16.59041992 -16.77915955 14.96643066 C-15.97127991 13.55768677 -15.97127991 13.55768677 -15.14707947 12.1204834 C-14.55773621 11.12218506 -13.96839294 10.12388672 -13.3611908 9.09533691 C-12.93816618 8.10114211 -12.93816618 8.10114211 -12.50659561 7.08686256 C-9.54201515 0.95086466 -6.61980834 0.15380272 0 0 Z " fill="#D4E8F1" transform="translate(108.36119079589844,254.9046630859375)"/>
<path d="M0 0 C12.87 0 25.74 0 39 0 C42.526875 6.1875 42.526875 6.1875 46.125 12.5 C51.66874901 22.21073536 57.24268012 31.90282483 62.875 41.5625 C63.46297363 42.57183594 64.05094727 43.58117187 64.65673828 44.62109375 C67.72601061 49.87394568 67.72601061 49.87394568 71 55 C70.97555677 57.62153657 70.81399243 60.03427907 70.5 62.625 C70.4081543 63.40407715 70.31630859 64.1831543 70.22167969 64.98583984 C66.70848165 91.66645446 57.82817842 117.47184204 43 140 C42.30793457 141.12301514 41.61586914 142.24603027 40.90283203 143.40307617 C37.93721192 147.52028172 34.68489699 149.0648353 30.03515625 150.859375 C29.25793213 151.17488815 28.48070801 151.49040131 27.67993164 151.81547546 C25.15166483 152.8246801 22.61052277 153.79184848 20.0625 154.75 C19.19196991 155.0828299 18.32143982 155.41565979 17.42453003 155.75857544 C1.22466212 161.88613282 -13.61660622 164.70903332 -31 165 C-32.14178711 165.0304541 -33.28357422 165.0609082 -34.45996094 165.09228516 C-44.39892493 165.33584532 -54.12973363 165.24761777 -64 164 C-64 163.67 -64 163.34 -64 163 C-63.06824951 162.97981812 -63.06824951 162.97981812 -62.11767578 162.95922852 C-44.4192777 162.42727411 -29.33913148 158.74103915 -13 152 C-12.21367187 151.67805664 -11.42734375 151.35611328 -10.6171875 151.02441406 C2.12686864 145.65756754 8.58504498 138.04202636 14.02148438 125.44042969 C21.04516024 107.92329796 27.63685956 88.80665934 30 70 C29.00345901 70.01327269 29.00345901 70.01327269 27.98678589 70.02681351 C21.22424693 70.07739802 14.5593395 69.77589609 7.8203125 69.23730469 C6.75945938 69.15594772 5.69860626 69.07459076 4.60560608 68.99076843 C1.11174746 68.72181365 -2.38161273 68.44687875 -5.875 68.171875 C-8.36024222 67.97931402 -10.84551304 67.78712194 -13.33081055 67.59527588 C-19.22689987 67.1392239 -25.12268675 66.67939312 -31.0183382 66.21772408 C-38.16687147 65.65817679 -45.31586177 65.10456004 -52.46484375 64.55078125 C-67.64375221 63.37386436 -82.82198674 62.18840059 -98 61 C-99.26118652 60.9012558 -100.52237305 60.8025116 -101.82177734 60.70077515 C-117.54801853 59.46930933 -133.27409179 58.23571046 -149 57 C-149 56.67 -149 56.34 -149 56 C-89.27 56 -29.54 56 32 56 C22.4895484 39.3567097 12.97491092 22.73409929 3.25830078 6.21289062 C2.10238997 4.18006649 1.04580149 2.09160298 0 0 Z " fill="#A8D6E8" transform="translate(223,256)"/>
<path d="M0 0 C13.66088057 2.01636614 26.98091724 13.34146387 35.03125 24.03125 C48.29436621 44.03118714 54.17664913 66.38205624 57 90 C57.27457031 91.40765625 57.27457031 91.40765625 57.5546875 92.84375 C58.19270487 98.13462573 57.50792913 101.64515164 54.3828125 105.94140625 C51.69988518 109.31996634 48.85067645 112.53426097 45.90773106 115.68782616 C43.90801085 117.9703399 43.90801085 117.9703399 42.45862484 120.76171303 C39.82082298 125.31551621 37.81771296 128.44122004 32.64991951 130.02984238 C28.39667033 130.43490009 24.26265295 130.4892759 19.99633789 130.42333984 C18.37426514 130.43826238 16.7522297 130.4578578 15.13026428 130.48175049 C10.74090823 130.53174983 6.3544069 130.51252514 1.96500325 130.47758055 C-2.63795467 130.44964563 -7.24067521 130.47558267 -11.84364319 130.49282837 C-19.57353407 130.51281911 -27.30226747 130.48653004 -35.03198242 130.43408203 C-43.95450732 130.37423759 -52.87426656 130.39359406 -61.79672426 130.45417249 C-69.47108794 130.50418134 -77.14462159 130.51109089 -84.81909567 130.48234713 C-89.39666731 130.46524295 -93.9729414 130.46278016 -98.55042839 130.4992485 C-102.85683984 130.53116289 -107.15970772 130.50875771 -111.4657383 130.44541168 C-113.04059859 130.43093559 -114.61576012 130.43492912 -116.19049835 130.45930099 C-128.05178731 130.62587208 -128.05178731 130.62587208 -132.88875008 126.5892067 C-135.17400873 123.82499621 -137.10844125 121.04261285 -139 118 C-139.98103974 116.72707891 -140.97730214 115.46556844 -141.99609375 114.22265625 C-142.80175781 113.17980469 -143.60742188 112.13695312 -144.4375 111.0625 C-144.85708984 110.52560547 -145.27667969 109.98871094 -145.70898438 109.43554688 C-147.80222094 106.72135018 -149.52475587 104.08655648 -151 101 C-150.06662969 101.00037703 -149.13325937 101.00075405 -148.17160511 101.0011425 C-125.4707967 101.0089433 -102.77022716 100.98239041 -80.06950092 100.9197216 C-69.09161212 100.89021254 -58.11391717 100.87190622 -47.13598633 100.87988281 C-37.56867974 100.88680612 -28.00167309 100.87280177 -18.43444031 100.83356392 C-13.36758129 100.81351693 -8.30119345 100.8040199 -3.23430824 100.81957626 C1.53393329 100.83388527 6.30127358 100.82023405 11.06939888 100.78504753 C12.82013212 100.77707262 14.57094643 100.77935208 16.32164764 100.79260826 C18.71193813 100.80917814 21.09920114 100.78894075 23.48930359 100.75949097 C24.52968616 100.77987012 24.52968616 100.77987012 25.59108657 100.80066097 C28.33634663 100.73488008 30.41728945 100.49175791 32.55226862 98.69001794 C34.99026934 95.85754269 36.63424075 93.60527747 36.59375 89.8203125 C36.59342773 89.06459961 36.59310547 88.30888672 36.59277344 87.53027344 C36.5621582 86.7365332 36.53154297 85.94279297 36.5 85.125 C36.47341309 83.87251465 36.47341309 83.87251465 36.44628906 82.59472656 C36.17319188 74.51534577 34.86413987 66.8485889 33 59 C32.70996094 57.74574219 32.41992188 56.49148437 32.12109375 55.19921875 C26.72468217 33.45551855 17.45313717 15.48239042 0 1 C0 0.67 0 0.34 0 0 Z " fill="#A8D6E8" transform="translate(228,122)"/>
<path d="M0 0 C1.65883974 2.4882596 2.48013072 4.08805366 3.36938477 6.84350586 C3.74645821 8.00038406 3.74645821 8.00038406 4.13114929 9.18063354 C4.53222649 10.4350676 4.53222649 10.4350676 4.94140625 11.71484375 C5.22534744 12.58996613 5.50928864 13.4650885 5.80183411 14.36672974 C6.72694666 17.22209935 7.64520151 20.07961127 8.5625 22.9375 C9.19395724 24.89842567 9.82563125 26.85928155 10.45751953 28.82006836 C11.40653065 31.76499306 12.35517672 34.71002879 13.30181885 37.65571594 C15.1374497 43.35964459 17.01044301 49.04895733 18.92578125 54.7265625 C19.35065816 55.99861937 19.77507524 57.27082993 20.19897461 58.54321289 C20.95794774 60.81446006 21.72753841 63.08219972 22.51000977 65.34545898 C24.9775682 72.80757919 26.80528985 80.02836233 23.4375 87.4375 C18.73473398 92.38143351 11.30045858 94.01453507 4.9453125 96.1796875 C3.65559036 96.62164963 3.65559036 96.62164963 2.33981323 97.07254028 C0.52323482 97.69410023 -1.29382205 98.31426336 -3.11132812 98.93310547 C-5.83364895 99.86090704 -8.5536142 100.79537512 -11.2734375 101.73046875 C-20.9045398 105.02639479 -30.55696088 108.13885775 -40.34643555 110.9309082 C-44.87164917 112.25505858 -49.32509809 113.75137526 -53.77734375 115.30078125 C-56 116 -56 116 -58 116 C-56.50829734 111.0276578 -54.39542583 106.58154261 -52 102 C-58.86210302 102.58001109 -64.97895423 104.40165478 -71.5 106.5625 C-72.51320313 106.89185547 -73.52640625 107.22121094 -74.5703125 107.56054688 C-77.04904547 108.3673043 -79.52543319 109.18057108 -82 110 C-82.70304222 108.27709395 -83.38683491 106.54632534 -84.0625 104.8125 C-84.44535156 103.84957031 -84.82820313 102.88664062 -85.22265625 101.89453125 C-86.06752536 98.74856134 -85.73625597 97.11245906 -85 94 C-84.46795456 93.83126877 -83.93590912 93.66253754 -83.38774109 93.48869324 C-77.85265142 91.73131971 -72.32179092 89.96109957 -66.79321289 88.18334961 C-64.729167 87.52151145 -62.66406408 86.86296042 -60.59790039 86.20776367 C-57.62883264 85.26562135 -54.66376238 84.31173716 -51.69921875 83.35546875 C-50.7741301 83.0647197 -49.84904144 82.77397064 -48.8959198 82.47441101 C-48.03525406 82.19434708 -47.17458832 81.91428314 -46.2878418 81.62573242 C-45.53061325 81.38368576 -44.7733847 81.1416391 -43.99320984 80.89225769 C-40.20032063 79.19437596 -38.58793267 76.5495385 -36.79516602 72.91503906 C-36.18421837 71.68796234 -36.18421837 71.68796234 -35.56092834 70.43609619 C-34.91395241 69.11421295 -34.91395241 69.11421295 -34.25390625 67.765625 C-33.80152084 66.85423767 -33.34913544 65.94285034 -32.88304138 65.00384521 C-31.43715775 62.08867961 -29.99944378 59.16958118 -28.5625 56.25 C-27.12778779 53.34538861 -25.69134166 50.4416539 -24.25267029 47.53900146 C-23.35850919 45.73385497 -22.46682676 43.92747788 -21.57801819 42.11968994 C-19.20274135 37.31266322 -16.71313367 32.62518366 -14 28 C-21.69449967 30.52087061 -29.38886065 33.04216395 -37.08305454 35.5639677 C-40.65743637 36.73547206 -44.23186226 37.90684157 -47.80639648 39.07788086 C-51.26895433 40.21224191 -54.73138647 41.34698591 -58.19373894 42.48197365 C-59.50148162 42.91059262 -60.80926631 43.33908348 -62.11709785 43.76743126 C-63.97735342 44.37673842 -65.83743271 44.98658366 -67.69750977 45.59643555 C-68.88732452 45.9846347 -70.07713928 46.37283386 -71.30300903 46.77279663 C-73.92896951 47.64447513 -76.54238984 48.53442108 -79.15280151 49.45010376 C-79.83603202 49.68672383 -80.51926252 49.92334391 -81.22319698 50.16713428 C-83.13314087 50.83004717 -85.0398708 51.50219882 -86.94639587 52.17488098 C-90 53 -90 53 -93 52 C-94.16796875 49.34765625 -94.16796875 49.34765625 -95.1875 46.0625 C-95.53167969 44.98097656 -95.87585938 43.89945313 -96.23046875 42.78515625 C-97 40 -97 40 -97 38 C-77.38242361 31.41974445 -57.74507973 24.89897609 -38.084198 18.44921875 C-35.91258355 17.73619788 -33.74145594 17.02169249 -31.5708313 16.30566406 C-28.49259569 15.29070974 -25.41256272 14.28139876 -22.33203125 13.2734375 C-21.42080505 12.97182709 -20.50957886 12.67021667 -19.57073975 12.35946655 C-14.65770939 10.759241 -9.85266232 9.4690358 -4.7519989 8.61538696 C-2.61098042 8.09155726 -2.61098042 8.09155726 -1.5 5 C-1.335 4.01 -1.17 3.02 -1 2 C-0.67 1.34 -0.34 0.68 0 0 Z " fill="#325569" transform="translate(446,173)"/>
<path d="M0 0 C0.54785156 0.50273438 1.09570312 1.00546875 1.66015625 1.5234375 C2.22605469 2.01070312 2.79195313 2.49796875 3.375 3 C5.302535 5.71531017 5.65727083 7.56786743 5.72265625 10.8984375 C4.51407195 13.26305896 3.3519893 15.10713429 1.78515625 17.2109375 C0.84969735 18.53813785 -0.08234664 19.86774904 -1.01171875 21.19921875 C-1.53185547 21.93865723 -2.05199219 22.6780957 -2.58789062 23.43994141 C-5.84211308 28.17549345 -8.8862853 33.04768013 -11.96484375 37.8984375 C-19.09824324 49.08647815 -26.33043039 60.20728262 -33.59033203 71.31347656 C-37.40156389 77.15332069 -41.18306059 83.01243823 -44.96679688 88.87011719 C-47.23511174 92.38076546 -49.50641673 95.88947863 -51.77734375 99.3984375 C-52.6940239 100.81509544 -53.61069059 102.23176209 -54.52734375 103.6484375 C-56.36067708 106.48177083 -58.19401042 109.31510417 -60.02734375 112.1484375 C-60.48165771 112.8506543 -60.93597168 113.55287109 -61.40405273 114.27636719 C-62.31467143 115.68349567 -63.22563773 117.09039927 -64.13696289 118.49707031 C-66.52416105 122.18283928 -68.90399833 125.87309761 -71.2734375 129.5703125 C-71.76585937 130.33666016 -72.25828125 131.10300781 -72.765625 131.89257812 C-73.7040752 133.35337324 -74.64041252 134.81552877 -75.57421875 136.27929688 C-76.00089844 136.94251953 -76.42757812 137.60574219 -76.8671875 138.2890625 C-77.23706787 138.86688477 -77.60694824 139.44470703 -77.98803711 140.04003906 C-79.63914626 142.41993735 -81.45054545 144.65177704 -83.27734375 146.8984375 C-85.16469317 141.60258 -87.03379729 136.30076244 -88.88647461 130.99267578 C-89.51889845 129.18885077 -90.15622354 127.38673621 -90.79858398 125.58642578 C-91.7225087 122.99428378 -92.62847502 120.3964468 -93.53125 117.796875 C-93.82077042 116.9966391 -94.11029083 116.1964032 -94.40858459 115.37191772 C-96.77649487 108.45646376 -95.97210532 103.65215965 -92.9606781 97.05873108 C-88.55763782 88.41302638 -84.06425012 84.77369235 -74.89419556 81.69784546 C-72.34449685 80.91232957 -69.78219098 80.18640264 -67.21484375 79.4609375 C-65.49116739 78.92132504 -63.76913598 78.3764288 -62.04882812 77.82617188 C-54.78627053 75.55422858 -47.86470433 73.67075213 -40.27734375 72.8984375 C-41.92734375 68.6084375 -43.57734375 64.3184375 -45.27734375 59.8984375 C-51.55448473 60.5148649 -57.15159648 62.39136202 -63.08984375 64.4609375 C-64.97045057 65.11069415 -66.85192043 65.75795994 -68.734375 66.40234375 C-69.5591333 66.68924072 -70.3838916 66.9761377 -71.23364258 67.27172852 C-73.27734375 67.8984375 -73.27734375 67.8984375 -75.27734375 67.8984375 C-74.70505547 65.86941543 -74.00615464 63.87663848 -73.27734375 61.8984375 C-72.99661011 60.86589844 -72.99661011 60.86589844 -72.71020508 59.8125 C-71.37303211 56.31321234 -69.88582964 53.78079783 -66.51443481 51.93136597 C-61.05680194 49.58788672 -55.34714325 47.99024793 -49.65234375 46.3359375 C-47.91704014 45.80183593 -46.18265105 45.26475342 -44.44921875 44.72460938 C-32.00472635 40.8984375 -32.00472635 40.8984375 -28.27734375 40.8984375 C-28.56609375 40.06699219 -28.85484375 39.23554687 -29.15234375 38.37890625 C-29.70921875 36.74888672 -29.70921875 36.74888672 -30.27734375 35.0859375 C-30.64859375 34.00699219 -31.01984375 32.92804688 -31.40234375 31.81640625 C-32.27734375 28.8984375 -32.27734375 28.8984375 -32.27734375 25.8984375 C-33.25791748 26.22529541 -34.23849121 26.55215332 -35.2487793 26.88891602 C-56.25830078 33.89208984 -77.26782227 40.89526367 -98.27734375 47.8984375 C-97.93316406 48.67445312 -97.58898437 49.45046875 -97.234375 50.25 C-94.26354928 58.74676434 -94.26354928 58.74676434 -96.21484375 62.88818359 C-99.11349592 67.28468838 -102.63034799 71.11531748 -106.27734375 74.8984375 C-109.38900082 70.2309519 -110.69497873 64.9635915 -112.40234375 59.6484375 C-112.77488281 58.52824219 -113.14742188 57.40804687 -113.53125 56.25390625 C-116.96094683 45.61305199 -116.96094683 45.61305199 -116.27734375 39.8984375 C-112.7223893 33.05185856 -107.90459694 30.93860793 -100.82006836 28.58935547 C-100.19131805 28.3790419 -99.56256775 28.16872833 -98.9147644 27.95204163 C-96.83828173 27.25911199 -94.75906787 26.57480504 -92.6796875 25.890625 C-91.20675288 25.4012932 -89.73398273 24.91146611 -88.2613678 24.4211731 C-84.36946529 23.12707114 -80.47513608 21.8404233 -76.58032227 20.55511475 C-72.72570724 19.28134927 -68.87378004 17.9995088 -65.02148438 16.71875 C-58.2663185 14.47422684 -51.50615233 12.24529141 -44.74246788 10.026577 C-40.51189069 8.63759977 -36.28630731 7.23475052 -32.0648756 5.81822777 C-30.11101163 5.16418203 -28.15547638 4.51545121 -26.19911194 3.868927 C-23.83219841 3.08637257 -21.46805229 2.29537354 -19.10740662 1.49411011 C-5.87518696 -2.84185716 -5.87518696 -2.84185716 0 0 Z " fill="#002C44" transform="translate(403.27734375,52.1015625)"/>
<path d="M0 0 C-1.70646951 3.58422374 -3.41548473 7.16722805 -5.125 10.75 C-5.62547852 11.80082764 -6.12595703 12.85165527 -6.64160156 13.93432617 C-9.70507617 20.34965497 -12.83560356 26.70985835 -16.171875 32.98828125 C-16.44515625 33.65214844 -16.7184375 34.31601563 -17 35 C-16.67 35.66 -16.34 36.32 -16 37 C-18.7907207 37.83661862 -21.58248012 38.66942737 -24.375 39.5 C-25.1690625 39.73847656 -25.963125 39.97695312 -26.78125 40.22265625 C-27.54179687 40.44824219 -28.30234375 40.67382812 -29.0859375 40.90625 C-30.1385376 41.22045898 -30.1385376 41.22045898 -31.21240234 41.54101562 C-33 42 -33 42 -35 42 C-33.35 46.62 -31.7 51.24 -30 56 C-22.04529848 53.9049888 -14.25763267 51.50458296 -6.46484375 48.875 C-5.30553848 48.48683105 -4.14623322 48.09866211 -2.95179749 47.69873047 C0.72061023 46.46870595 4.39164435 45.23464794 8.0625 44 C11.73709908 42.76587934 15.4119993 41.53267512 19.08750916 40.30126953 C21.36425313 39.53832015 23.64046105 38.77376851 25.91603088 38.00732422 C43.82605671 32 43.82605671 32 48 32 C46.4885879 37.14041762 44.23067295 41.57010183 41.6875 46.25 C38.5436269 52.05825152 35.54978934 57.89611961 32.765625 63.88671875 C32.21302002 65.05493164 31.66041504 66.22314453 31.09106445 67.42675781 C30.00662146 69.72917776 28.94437546 72.04221225 27.90698242 74.36621094 C27.40013916 75.43000977 26.8932959 76.49380859 26.37109375 77.58984375 C25.93724365 78.53722412 25.50339355 79.48460449 25.05639648 80.46069336 C20.41555625 86.19135694 11.85753039 87.850386 5.02734375 90.015625 C3.81456505 90.40666412 3.81456505 90.40666412 2.57728577 90.80560303 C0.03216177 91.62506908 -2.5150965 92.4376514 -5.0625 93.25 C-6.80418327 93.80943897 -8.54572112 94.36933089 -10.28710938 94.9296875 C-14.52307939 96.29169138 -18.76097595 97.64753281 -23 99 C-22.86722656 100.2478125 -22.73445313 101.495625 -22.59765625 102.78125 C-22.48562866 103.8340918 -22.48562866 103.8340918 -22.37133789 104.90820312 C-21.83560242 107.92607394 -20.51636891 110.36283667 -19 113 C-18.30438965 112.75765625 -17.6087793 112.5153125 -16.89208984 112.265625 C-13.72294218 111.16753619 -10.54910784 110.08366312 -7.375 109 C-6.28058594 108.6184375 -5.18617188 108.236875 -4.05859375 107.84375 C-2.99511719 107.4828125 -1.93164062 107.121875 -0.8359375 106.75 C0.13811035 106.41484375 1.1121582 106.0796875 2.11572266 105.734375 C5.18518958 104.95284829 7.84579646 104.86908623 11 105 C9.00544636 111.64585273 6.82619779 118.70536699 0.59082031 122.44482422 C-7.76873839 126.03451707 -17.85418462 129.29565718 -27 128 C-32.56928893 125.46484151 -34.65355594 121.04705768 -36.80859375 115.546875 C-37.72754761 112.96131533 -38.58556466 110.35827803 -39.4375 107.75 C-39.90455575 106.36940925 -40.37299783 104.98928677 -40.84277344 103.60961914 C-42.03005091 100.09880553 -43.18619892 96.57863999 -44.33099365 93.05377197 C-44.97787116 91.06793298 -45.63320391 89.08510534 -46.29150391 87.10302734 C-47.46428322 83.55391268 -48.61355923 79.99839904 -49.75 76.4375 C-50.09732178 75.36918945 -50.44464355 74.30087891 -50.80249023 73.20019531 C-51.11001221 72.2047168 -51.41753418 71.20923828 -51.734375 70.18359375 C-52.00475586 69.32306396 -52.27513672 68.46253418 -52.55371094 67.57592773 C-53.56991737 61.71050428 -51.42282467 57.41314631 -48.67578125 52.328125 C-48.33737213 51.69598083 -47.99896301 51.06383667 -47.65029907 50.41253662 C-46.54574823 48.35390862 -45.42928104 46.30201477 -44.3125 44.25 C-43.54618022 42.8272407 -42.78064405 41.40405907 -42.01586914 39.98046875 C-40.45381205 37.07617917 -38.88686034 34.17461896 -37.31542969 31.27539062 C-35.12024461 27.22503243 -32.93706407 23.16832354 -30.7578125 19.109375 C-27.51326245 13.06855974 -24.26001734 7.0324822 -21 1 C-20.34 1.33 -19.68 1.66 -19 2 C-19 2.99 -19 3.98 -19 5 C-17.79601562 4.55527344 -16.59203125 4.11054688 -15.3515625 3.65234375 C-13.77618583 3.08033198 -12.20065704 2.50873901 -10.625 1.9375 C-9.8309375 1.64294922 -9.036875 1.34839844 -8.21875 1.04492188 C-7.45820313 0.77099609 -6.69765625 0.49707031 -5.9140625 0.21484375 C-5.2123291 -0.04176025 -4.5105957 -0.29836426 -3.78759766 -0.56274414 C-2 -1 -2 -1 0 0 Z " fill="#012D44" transform="translate(384,169)"/>
<path d="M0 0 C1.82875404 2.74313106 2.72037028 4.77074949 3.6875 7.875 C3.95949219 8.71804687 4.23148437 9.56109375 4.51171875 10.4296875 C5.39627536 15.0859935 3.85903648 18.65661296 1.69921875 22.74609375 C1.22291016 23.65423828 0.74660156 24.56238281 0.25585938 25.49804688 C-0.26169922 26.46806641 -0.77925781 27.43808594 -1.3125 28.4375 C-1.84939453 29.45521484 -2.38628906 30.47292969 -2.93945312 31.52148438 C-7.04934358 39.2856765 -11.25242354 46.99823396 -15.48193359 54.69775391 C-19.73455257 62.45777367 -23.84135599 70.28960087 -27.90429688 78.15039062 C-30.84062297 83.82293159 -33.86279125 89.43591001 -37 95 C-35.27716797 94.41992188 -35.27716797 94.41992188 -33.51953125 93.828125 C-25.58811465 91.1660173 -17.65479385 88.55268816 -9.640625 86.1484375 C-6.63081358 85.19899055 -3.65298641 84.19838942 -0.671875 83.1640625 C0.74484497 82.67667603 0.74484497 82.67667603 2.19018555 82.17944336 C4.0775433 81.52765122 5.96195511 80.86725323 7.84301758 80.19750977 C8.71079834 79.89901123 9.5785791 79.6005127 10.47265625 79.29296875 C11.63680054 78.88340942 11.63680054 78.88340942 12.82446289 78.46557617 C15.28827909 77.93830679 16.6698145 78.06550019 19 79 C20.046875 81.14453125 20.046875 81.14453125 20.75 83.8125 C20.99234375 84.68519531 21.2346875 85.55789062 21.484375 86.45703125 C22 89 22 89 22 93 C13.69112029 95.74153677 5.38120316 98.47989881 -2.93006706 101.21417999 C-6.78902107 102.4838283 -10.64760462 103.75457956 -14.50537109 105.02783203 C-18.22626579 106.2558655 -21.9480946 107.48102702 -25.67059708 108.70417786 C-27.09274277 109.17203473 -28.51454507 109.64093672 -29.93600082 110.11088562 C-31.92242611 110.76742444 -33.91002469 111.42028293 -35.89794922 112.07226562 C-37.03046112 112.44532837 -38.16297302 112.81839111 -39.32980347 113.20275879 C-42 114 -42 114 -44 114 C-44.33 113.01 -44.66 112.02 -45 111 C-51.69033491 122.74505613 -58.08267532 134.62368186 -64.35131836 146.59814453 C-68.68622538 154.87097906 -73.04341517 163.07573996 -78 171 C-81.32348719 166.01476922 -82.83051095 160.27193719 -84.75 154.625 C-85.18699219 153.39265625 -85.62398438 152.1603125 -86.07421875 150.890625 C-86.47769531 149.70210937 -86.88117188 148.51359375 -87.296875 147.2890625 C-87.67166992 146.20318848 -88.04646484 145.11731445 -88.43261719 143.99853516 C-89.54242621 138.13335685 -85.73314914 133.72112617 -82.6875 128.9375 C-82.03479126 127.90290649 -82.03479126 127.90290649 -81.36889648 126.84741211 C-76.18526106 118.66066753 -70.88317803 110.54996573 -65.58740234 102.43554688 C-63.17454224 98.73350252 -60.77405301 95.02350141 -58.375 91.3125 C-57.92906494 90.62293213 -57.48312988 89.93336426 -57.02368164 89.22290039 C-56.12997707 87.84086461 -55.23634065 86.45878475 -54.34277344 85.07666016 C-52.06276071 81.55051684 -49.78129794 78.02531191 -47.5 74.5 C-46.58332659 73.0833377 -45.66665992 71.66667103 -44.75 70.25 C-39.25 61.75 -33.75 53.25 -28.25 44.75 C-27.7960083 44.04834717 -27.3420166 43.34669434 -26.87426758 42.6237793 C-25.96015035 41.21111173 -25.04592557 39.79851375 -24.1315918 38.38598633 C-21.80001926 34.78370468 -19.47048966 31.18012836 -17.14453125 27.57421875 C-16.20061927 26.11191562 -15.25661003 24.64967527 -14.3125 23.1875 C-13.8582666 22.48351074 -13.4040332 21.77952148 -12.93603516 21.05419922 C-9.51323827 15.7617135 -6.01392109 10.52652111 -2.4609375 5.3203125 C-0.86369523 2.98753357 -0.86369523 2.98753357 0 0 Z " fill="#325468" transform="translate(409,60)"/>
<path d="M0 0 C2.81384747 0.01086175 5.62764633 0.01046661 8.44151115 0.00986195 C11.20603747 0.01013703 13.97053396 0.01567007 16.7350502 0.02286339 C18.64397069 0.02746527 20.55289725 0.02930069 22.46182251 0.03102112 C28.74196906 0.0646228 35.0178752 0.19489668 41.29095459 0.49517822 C42.48842316 0.54731979 43.68589172 0.59946136 44.91964722 0.65318298 C50.43161423 1.55692958 54.0065545 4.74173528 58.22796631 8.19561768 C64.7096184 12.13544542 72.83572724 12.29751247 80.22796631 11.19561768 C82.21938763 9.314664 82.21938763 9.314664 83.22796631 7.19561768 C88.60893535 7.6260952 92.08289788 8.65714463 96.22796631 12.19561768 C96.22796631 16.19561768 96.22796631 16.19561768 94.71234131 17.78936768 C91.44016887 19.64154076 88.08100009 20.70392061 84.47796631 21.69561768 C83.31551392 22.01707764 83.31551392 22.01707764 82.12957764 22.34503174 C62.65896333 27.40491112 41.81633459 28.36197349 21.79437256 28.32843018 C20.34433476 28.32910654 18.89429707 28.33007931 17.44425964 28.33132935 C14.42643133 28.33279117 11.4086329 28.33070145 8.39080811 28.32598877 C4.56431217 28.3202976 0.73788652 28.32357638 -3.08860683 28.32956123 C-6.07699594 28.33321257 -9.06536898 28.33200742 -12.05375862 28.32943344 C-13.46285066 28.32877648 -14.87194426 28.32954835 -16.28103447 28.33191299 C-29.81784066 28.34965269 -43.03863622 27.53015059 -56.39703369 25.32061768 C-57.42570557 25.15948486 -58.45437744 24.99835205 -59.51422119 24.83233643 C-80.21517191 21.47753411 -80.21517191 21.47753411 -86.77203369 16.19561768 C-86.45823263 13.29295784 -86.20255963 11.64270231 -84.14703369 9.50811768 C-79.78307067 7.0964539 -75.73383742 6.19561768 -70.77203369 6.19561768 C-69.39720662 7.82822482 -68.06555702 9.4978683 -66.77203369 11.19561768 C-64.02376549 13.28051079 -62.73865037 13.19444633 -59.20953369 13.07061768 C-55.80473211 12.49664788 -55.80473211 12.49664788 -53.95953369 10.50811768 C-52.57695411 7.81572586 -51.7043151 5.07113545 -50.77203369 2.19561768 C-33.84912774 0.09601631 -17.02178946 -0.08280576 0 0 Z " fill="#2185B6" transform="translate(187.77203369140625,431.80438232421875)"/>
<path d="M0 0 C1.15287287 2.78173077 2.01607903 5.36372249 2.8125 8.25 C3.31785579 9.97728316 3.82576835 11.70381988 4.3359375 13.4296875 C4.60116211 14.33686523 4.86638672 15.24404297 5.13964844 16.17871094 C6.01972419 19.06468012 6.98146551 21.90957659 7.9765625 24.7578125 C8.30293701 25.69592773 8.62931152 26.63404297 8.96557617 27.60058594 C9.6035673 29.42176937 10.24932281 31.24025512 10.90356445 33.05566406 C13.69502256 41.13911527 13.69502256 41.13911527 12 45 C6.73571325 51.95090289 0.10066724 57.98615437 -6.25 63.9375 C-7.09824341 64.73414063 -7.09824341 64.73414063 -7.96362305 65.546875 C-11.7689092 69.04802633 -15.74178286 72.06572093 -20 75 C-22.82170374 71.6167995 -25.15218224 68.21900944 -27.3203125 64.38671875 C-27.93382568 63.31043213 -28.54733887 62.23414551 -29.17944336 61.12524414 C-30.1424939 59.42356079 -30.1424939 59.42356079 -31.125 57.6875 C-35.9510192 49.20544594 -40.84286732 40.79116631 -46.20556641 32.63354492 C-49 28.31077388 -49 28.31077388 -49 25 C-47.83210938 24.34257812 -47.83210938 24.34257812 -46.640625 23.671875 C-39.29903389 19.51051229 -32.03746312 15.23584904 -24.8125 10.875 C-21.54454203 8.91183223 -18.27353666 6.95384984 -15 5 C-14.05906494 4.43659912 -14.05906494 4.43659912 -13.09912109 3.86181641 C-11.57441181 2.95620198 -10.03782095 2.07066625 -8.5 1.1875 C-7.7059375 0.72730469 -6.911875 0.26710937 -6.09375 -0.20703125 C-3.53612649 -1.17568344 -2.52098838 -0.98936784 0 0 Z " fill="#D4E8F1" transform="translate(320,230)"/>
<path d="M0 0 C0.67220351 1.93558599 1.33758077 3.87354372 2 5.8125 C2.37125 6.89144531 2.7425 7.97039062 3.125 9.08203125 C4 12 4 12 4 15 C-1.21260957 16.7146092 -6.42706046 18.42345129 -11.64331055 20.12695312 C-13.41791888 20.7073976 -15.1920117 21.28942062 -16.96557617 21.87304688 C-19.51347436 22.71118066 -22.06316647 23.54363866 -24.61328125 24.375 C-25.40712723 24.63748535 -26.20097321 24.8999707 -27.01887512 25.17041016 C-30.11767929 26.17573524 -32.72027089 27 -36 27 C-36.10183594 27.54140625 -36.20367187 28.0828125 -36.30859375 28.640625 C-37.17757607 31.60596581 -38.55472291 34.05524946 -40.0625 36.75 C-40.61035156 37.73484375 -41.15820312 38.7196875 -41.72265625 39.734375 C-42.14417969 40.48203125 -42.56570313 41.2296875 -43 42 C-42.23856689 41.72212646 -41.47713379 41.44425293 -40.69262695 41.15795898 C-37.23707066 39.90500718 -33.77500959 38.67109923 -30.3125 37.4375 C-29.11431641 36.99986328 -27.91613281 36.56222656 -26.68164062 36.11132812 C-25.52470703 35.70205078 -24.36777344 35.29277344 -23.17578125 34.87109375 C-22.11270752 34.48880615 -21.04963379 34.10651855 -19.9543457 33.71264648 C-16.81182888 32.95460941 -15.0381817 32.93758078 -12 34 C-10.63671875 36.43359375 -10.63671875 36.43359375 -9.6875 39.4375 C-9.36136719 40.42621094 -9.03523438 41.41492188 -8.69921875 42.43359375 C-8 45 -8 45 -8 47 C-9.71316406 47.49306641 -9.71316406 47.49306641 -11.4609375 47.99609375 C-14.93748105 49.00588272 -18.39794677 50.0598091 -21.85546875 51.1328125 C-26.14714213 52.46314013 -30.45711462 53.65646793 -34.80078125 54.8046875 C-49.07616608 58.46678939 -49.07616608 58.46678939 -58.90551758 68.65112305 C-60.48345885 72.03755468 -61.74372292 75.48242419 -63 79 C-63.99 79.495 -63.99 79.495 -65 80 C-66.31732103 76.12786297 -67.61669819 72.25019944 -68.90014648 68.36669922 C-69.33868007 67.04802726 -69.78197831 65.73092945 -70.23022461 64.41552734 C-70.87580963 62.51826859 -71.5025604 60.61463435 -72.12890625 58.7109375 C-72.70233765 56.99849854 -72.70233765 56.99849854 -73.28735352 55.25146484 C-74.06126746 51.72046591 -73.95355892 49.46998947 -73 46 C-70.828125 43.46484375 -70.828125 43.46484375 -68.25 40.9375 C-65.23573048 37.49126429 -63.97868561 36.03430887 -64.07421875 31.3984375 C-64.85557478 28.15280474 -65.7719031 25.102301 -67 22 C-62.58058487 19.63978604 -58.15653394 17.99426788 -53.375 16.5625 C-43.19532169 13.43428147 -33.09907203 10.06461473 -23 6.6875 C-22.18488953 6.41511505 -21.36977905 6.1427301 -20.52996826 5.86209106 C-16.8008402 4.6158441 -13.07202693 3.368664 -9.34375 2.11987305 C-3.01417048 0 -3.01417048 0 0 0 Z " fill="#325669" transform="translate(371,78)"/>
<path d="M0 0 C3.271021 0.28037323 4.91953166 0.93915809 7.5625 2.9375 C12.59534547 9.26081867 14.66517983 17.69679225 17.1796875 25.30859375 C17.61285027 26.60815758 17.61285027 26.60815758 18.05476379 27.93397522 C18.99804507 30.76743046 19.93669519 33.60239326 20.875 36.4375 C21.54652984 38.45966897 22.21816261 40.48180375 22.88989258 42.50390625 C27.77249241 57.21943193 32.58998144 71.95585211 37.37646484 86.70288086 C42.33718263 101.98500513 47.33980434 117.25326049 52.34994507 132.5192337 C60.01967605 155.88948118 67.66426594 179.26775649 75.26274109 202.6612854 C76.16679773 205.44375845 77.07482085 208.22446254 78 211 C78.6283866 216.31553255 78.43879788 220.88474263 75.35678291 225.39351273 C71.26873564 230.23393035 64.35865017 232.11039893 58.52392578 233.98925781 C57.7047467 234.25984512 56.88556763 234.53043243 56.04156494 234.80921936 C53.34515849 235.69784475 50.64533415 236.57555177 47.9453125 237.453125 C46.04201546 238.07778856 44.13893284 238.7031058 42.23605347 239.32904053 C37.22062465 240.97675005 32.20218811 242.61510792 27.18310547 244.25164795 C22.16567837 245.88964202 17.15137103 247.53712866 12.13671875 249.18359375 C3.59111678 251.98821284 -4.95941147 254.77737369 -13.51311874 257.55716705 C-18.09488436 259.04781976 -22.67195712 260.55096692 -27.24129295 262.07930374 C-29.03617173 262.67898886 -30.83288207 263.27318361 -32.62966919 263.86712646 C-34.65821952 264.53771552 -36.68403694 265.21667341 -38.70602417 265.90679932 C-44.02060832 267.64792942 -48.39892973 268.50057688 -54 268 C-54.99 267.34 -55.98 266.68 -57 266 C-57 265.34 -57 264.68 -57 264 C-50.60157012 261.94830823 -44.20274758 259.89784408 -37.8036499 257.84823608 C-35.51604676 257.11549043 -33.22848986 256.38260038 -30.940979 255.64956665 C-19.41688557 251.95727764 -7.89259515 248.26660745 3.65625 244.65234375 C4.46296646 244.39978317 5.26968292 244.1472226 6.10084534 243.88700867 C6.88942429 243.64013809 7.67800323 243.39326752 8.49047852 243.13891602 C25.87440315 237.6961675 43.13217555 231.95282673 60.32495117 225.93286133 C62.21189794 225.27483234 64.10415897 224.63194701 66 224 C69.55495142 218.07508097 69.66419622 212.11473071 68.2578125 205.51953125 C67.88398438 204.29621094 67.51015625 203.07289063 67.125 201.8125 C66.80595703 200.76255859 66.80595703 200.76255859 66.48046875 199.69140625 C63.79388584 191.03625264 60.7638177 182.48766548 57.74267578 173.94458008 C55.50335865 167.56846551 53.42973705 161.18010539 51.5625 154.6875 C49.0167673 145.84717479 46.04295225 137.17954886 43 128.5 C39.98973474 119.91368571 37.04062238 111.341708 34.53125 102.59375 C31.85718048 93.27793266 28.69309759 84.14849268 25.5 75 C22.07158429 65.17730114 18.75124346 55.36719569 15.88017273 45.36592102 C13.69685379 37.82292306 11.17096068 30.40399788 8.60571289 22.98364258 C7.79785102 20.64509507 6.99723386 18.30414877 6.19726562 15.96289062 C5.68010493 14.4581898 5.16254252 12.95362697 4.64453125 11.44921875 C4.40805374 10.75761154 4.17157623 10.06600433 3.92793274 9.35343933 C2.80586328 6.11912336 1.63780815 3.01071197 0 0 Z " fill="#0A45F0" transform="translate(406,42)"/>
<path d="M0 0 C-0.58265625 0.86238281 -1.1653125 1.72476562 -1.765625 2.61328125 C-6.06058295 8.99880776 -10.29296472 15.4149862 -14.38232422 21.93457031 C-15.90698654 24.36345664 -17.44552443 26.78320894 -18.984375 29.203125 C-20.88749346 32.20336358 -22.727106 35.22719817 -24.515625 38.296875 C-30.80142028 48.75039976 -38.65163603 57.18640674 -47.25 65.75 C-47.81752991 66.31606964 -48.38505981 66.88213928 -48.9697876 67.46536255 C-65.58352923 83.94746803 -65.58352923 83.94746803 -70.875 84.0625 C-73 83 -73 83 -75 80 C-75.94963791 70.3711133 -75.35824961 61.76853802 -71 53 C-70.53722656 52.04867187 -70.07445312 51.09734375 -69.59765625 50.1171875 C-56.95080688 26.43140114 -31.74821206 10.04705791 -7.5 0.0625 C-4.05081838 -0.98457299 -3.22411892 -1.02521325 0 0 Z " fill="#A9D6E8" transform="translate(97,255)"/>
<path d="M0 0 C2.33609103 2.33609103 2.83515077 3.9960956 3.87939453 7.1171875 C4.239617 8.18590088 4.59983948 9.25461426 4.97097778 10.35571289 C5.35438324 11.51707764 5.7377887 12.67844238 6.1328125 13.875 C6.52951141 15.06923584 6.92621033 16.26347168 7.33493042 17.49389648 C8.17373634 20.02826401 9.00954998 22.56342774 9.84130859 25.10009766 C10.90080097 28.32797332 11.97931522 31.54912735 13.06289864 34.76898193 C14.09947044 37.86245038 15.11469134 40.96291959 16.1328125 44.0625 C16.52026642 45.2076709 16.90772034 46.3528418 17.30691528 47.53271484 C19.81139072 55.27383369 21.93411255 62.74495239 18.4375 70.4375 C12.77475472 76.39064248 2.91135945 78.15185079 -4.6875 80.6875 C-6.52151367 81.31108398 -6.52151367 81.31108398 -8.39257812 81.94726562 C-9.56626953 82.33978516 -10.73996094 82.73230469 -11.94921875 83.13671875 C-13.01487061 83.49467529 -14.08052246 83.85263184 -15.1784668 84.22143555 C-18 85 -18 85 -22 85 C-20.82185924 76.96071391 -19.10915011 69.28830638 -16.8125 61.5 C-14.12736502 52.16700768 -11.64152163 42.80316832 -9.3125 33.375 C-8.87381592 31.60177368 -8.87381592 31.60177368 -8.42626953 29.79272461 C-7.86902398 27.53974239 -7.31188933 25.28673274 -6.75488281 23.03369141 C-5.76008383 19.03583495 -4.7397463 15.04560231 -3.6875 11.0625 C-3.40261719 9.98097656 -3.11773437 8.89945313 -2.82421875 7.78515625 C-2.03221055 5.10884418 -1.08399541 2.5703472 0 0 Z " fill="#002B44" transform="translate(451,190)"/>
<path d="M0 0 C1.16053391 0.00031723 1.16053391 0.00031723 2.34451294 0.00064087 C22.72517317 0.05627602 42.31608616 2.91758399 57.89453125 17.23046875 C69.07641608 28.62615635 75.06929779 46.57413962 75.125 62.375 C75.06290877 64.04259315 74.98851477 65.71011664 74.875 67.375 C72.97020284 64.51780426 72.37263815 62.48564284 71.68481445 59.18383789 C68.84561435 45.7402812 63.09186334 32.86343712 51.875 24.375 C43.25449509 18.78740266 33.82020221 16.36503546 23.875 14.375 C22.74320312 14.148125 21.61140625 13.92125 20.4453125 13.6875 C-2.15953523 9.85797286 -31.90178375 10.70625272 -51.625 23.6875 C-53.15619195 24.87758483 -54.65923305 26.10520555 -56.125 27.375 C-56.74632813 27.91253906 -57.36765625 28.45007813 -58.0078125 29.00390625 C-65.79548759 36.8090425 -70.39829861 48.84190477 -73.125 59.375 C-73.785 59.375 -74.445 59.375 -75.125 59.375 C-75.55917628 45.02909192 -68.80928197 28.99359682 -59.8125 17.8125 C-44.2878705 2.00940181 -20.95904752 -0.052833 0 0 Z " fill="#02121A" transform="translate(181.125,141.625)"/>
<path d="M0 0 C-1.8960287 5.16917298 -4.57897054 9.85391606 -7.25390625 14.6484375 C-9.43914218 18.58940137 -9.43914218 18.58940137 -10 23 C-10.98282959 23.31751221 -11.96565918 23.63502441 -12.97827148 23.9621582 C-16.66297688 25.15265843 -20.34750483 26.34370704 -24.03198242 27.53491211 C-25.61949999 28.04808002 -27.20706413 28.56110389 -28.79467773 29.07397461 C-40.9132647 32.9884665 -40.9132647 32.9884665 -53 37 C-52.65582031 37.77601562 -52.31164062 38.55203125 -51.95703125 39.3515625 C-48.98620553 47.84832684 -48.98620553 47.84832684 -50.9375 51.98974609 C-53.83615217 56.38625088 -57.35300424 60.21687998 -61 64 C-64.11165707 59.3325144 -65.41763498 54.065154 -67.125 48.75 C-67.49753906 47.62980469 -67.87007813 46.50960937 -68.25390625 45.35546875 C-71.68360308 34.71461449 -71.68360308 34.71461449 -71 29 C-67.5317519 22.32041107 -62.87638614 20.12391357 -55.95629883 17.82348633 C-54.76188675 17.42329788 -53.56747467 17.02310944 -52.33686829 16.61079407 C-51.043661 16.18432225 -49.75038022 15.75807321 -48.45703125 15.33203125 C-47.12360796 14.88835227 -45.79033271 14.44422818 -44.4571991 13.99967957 C-41.67198616 13.07231489 -38.88548144 12.14898102 -36.09790039 11.22875977 C-32.52127743 10.04791781 -28.94736229 8.85912195 -25.37428761 7.66759205 C-22.62566001 6.75156384 -19.87600251 5.83866254 -17.12598228 4.92682457 C-15.80720801 4.48935652 -14.48867575 4.05115819 -13.17038918 3.61222267 C-11.33310144 3.00123468 -9.49434385 2.39467196 -7.65551758 1.78833008 C-6.08596062 1.26895622 -6.08596062 1.26895622 -4.48469543 0.73908997 C-2 0 -2 0 0 0 Z " fill="#002C45" transform="translate(358,63)"/>
<path d="M0 0 C0.94921875 1.671875 0.94921875 1.671875 1.6875 3.75 C1.93886719 4.42546875 2.19023437 5.1009375 2.44921875 5.796875 C3.0667846 8.26713842 3.03697385 10.46270208 3 13 C-6.7023835 17.21317014 -16.81753902 20.26748003 -26.875 23.5 C-30.71686388 24.73866962 -34.55789739 25.9798886 -38.3984375 27.22265625 C-39.36509338 27.53529922 -40.33174927 27.8479422 -41.32769775 28.1700592 C-47.81046821 30.27293352 -54.27374158 32.42816216 -60.7265625 34.62109375 C-61.56218719 34.90413361 -62.39781189 35.18717346 -63.25875854 35.47879028 C-68.05362183 37.10327674 -68.05362183 37.10327674 -72.84222412 38.74609375 C-75.00687274 39.49333754 -77.17486136 40.23001662 -79.34375 40.96484375 C-80.56255859 41.3837085 -81.78136719 41.80257324 -83.03710938 42.23413086 C-86 43 -86 43 -89 42 C-90.16796875 39.34765625 -90.16796875 39.34765625 -91.1875 36.0625 C-91.53167969 34.98097656 -91.87585938 33.89945313 -92.23046875 32.78515625 C-93 30 -93 30 -93 28 C-73.31091126 21.39575731 -53.60038124 14.85733943 -33.86447144 8.39428711 C-31.66568099 7.67392256 -29.46721381 6.95257052 -27.26907349 6.23022461 C-24.16078902 5.20918597 -21.05128132 4.19196332 -17.94140625 3.17578125 C-16.54359924 2.7156237 -16.54359924 2.7156237 -15.11755371 2.24617004 C-14.25190796 1.96424301 -13.38626221 1.68231598 -12.49438477 1.3918457 C-11.74359146 1.14602249 -10.99279816 0.90019928 -10.21925354 0.64692688 C-3.7322398 -1.24407993 -3.7322398 -1.24407993 0 0 Z " fill="#39E9AF" transform="translate(442,183)"/>
<path d="M0 0 C0.66 0 1.32 0 2 0 C3.06893691 2.88648807 4.10010157 5.78511297 5.125 8.6875 C5.42792969 9.50412109 5.73085938 10.32074219 6.04296875 11.16210938 C6.32011719 11.95810547 6.59726562 12.75410156 6.8828125 13.57421875 C7.14465332 14.30213623 7.40649414 15.03005371 7.67626953 15.7800293 C8.30507694 20.09205479 5.47743704 24.16422747 3.56982422 27.94213867 C3.08947723 28.89630173 2.60913025 29.85046478 2.11422729 30.83354187 C1.59957916 31.85140274 1.08493103 32.86926361 0.5546875 33.91796875 C-0.53265897 36.08002437 -1.61989529 38.2421354 -2.70703125 40.40429688 C-4.42181529 43.80895941 -6.13786133 47.21297414 -7.85595703 50.6159668 C-9.51420529 53.90240371 -11.16756741 57.1912617 -12.8203125 60.48046875 C-13.33900909 61.50440231 -13.85770569 62.52833588 -14.39212036 63.58329773 C-14.86616302 64.5280043 -15.34020569 65.47271088 -15.82861328 66.44604492 C-16.24893829 67.27923752 -16.66926331 68.11243011 -17.10232544 68.97087097 C-18.13485735 70.93503121 -18.13485735 70.93503121 -18 73 C-25.62571782 75.23456312 -33.21406284 77.38911645 -41 79 C-39.72447253 74.87684512 -38.18067619 71.20379836 -36.12109375 67.4140625 C-35.53779297 66.33390869 -34.95449219 65.25375488 -34.35351562 64.14086914 C-34.04196533 63.56917999 -33.73041504 62.99749084 -33.40942383 62.40847778 C-32.07278967 59.95575747 -30.74653978 57.49747228 -29.41958618 55.039505 C-28.71404277 53.73281116 -28.00795784 52.42640958 -27.30136108 51.12028503 C-23.15801939 43.45715601 -19.07972763 35.75962325 -15 28.0625 C-10.03173025 18.69098782 -5.04095718 9.33266271 0 0 Z " fill="#315468" transform="translate(413,76)"/>
<path d="M0 0 C1.046875 2.14453125 1.046875 2.14453125 1.75 4.8125 C1.99234375 5.68519531 2.2346875 6.55789062 2.484375 7.45703125 C3 10 3 10 3 14 C-5.30887971 16.74153677 -13.61879684 19.47989881 -21.93006706 22.21417999 C-25.78902107 23.4838283 -29.64760462 24.75457956 -33.50537109 26.02783203 C-37.22626579 27.2558655 -40.9480946 28.48102702 -44.67059708 29.70417786 C-46.09274277 30.17203473 -47.51454507 30.64093672 -48.93600082 31.11088562 C-50.92242611 31.76742444 -52.91002469 32.42028293 -54.89794922 33.07226562 C-56.03046112 33.44532837 -57.16297302 33.81839111 -58.32980347 34.20275879 C-61 35 -61 35 -63 35 C-63.67220351 33.06441401 -64.33758077 31.12645628 -65 29.1875 C-65.37125 28.10855469 -65.7425 27.02960938 -66.125 25.91796875 C-67 23 -67 23 -67 20 C-63.10900881 18.64614085 -59.21695168 17.2954006 -55.32397461 15.94726562 C-54.00598548 15.49039259 -52.68826665 15.03273885 -51.37084961 14.57421875 C-43.63985412 11.88415088 -35.88788648 9.31888324 -28.05200195 6.94677734 C-25.10561754 6.03276416 -22.1911061 5.05572367 -19.27734375 4.04296875 C-18.38982422 3.73552734 -17.50230469 3.42808594 -16.58789062 3.11132812 C-14.78353389 2.48239612 -12.98152109 1.84670808 -11.18164062 1.20507812 C-10.30572266 0.90408203 -9.42980469 0.60308594 -8.52734375 0.29296875 C-7.75124756 0.0199292 -6.97515137 -0.25311035 -6.17553711 -0.53442383 C-3.71172091 -1.06169321 -2.3301855 -0.93449981 0 0 Z " fill="#39E9AF" transform="translate(428,139)"/>
<path d="M0 0 C0.67220351 1.93558599 1.33758077 3.87354372 2 5.8125 C2.37125 6.89144531 2.7425 7.97039062 3.125 9.08203125 C4 12 4 12 4 15 C-4.28928055 17.7658582 -12.58168291 20.52208233 -20.87825489 23.26599216 C-24.73041032 24.54034516 -28.58139923 25.81801439 -32.42993164 27.10327148 C-36.1426325 28.34303091 -39.85812046 29.57406628 -43.57571983 30.7990551 C-44.99495314 31.26841318 -46.41314628 31.74092842 -47.83027077 32.21661568 C-49.81234378 32.88134622 -51.79778772 33.53484761 -53.78442383 34.18579102 C-54.91471512 34.56107437 -56.04500641 34.93635773 -57.20954895 35.32301331 C-60 36 -60 36 -63 35 C-64.16796875 32.05859375 -64.16796875 32.05859375 -65.1875 28.4375 C-65.53167969 27.23996094 -65.87585938 26.04242188 -66.23046875 24.80859375 C-66.48441406 23.88175781 -66.73835938 22.95492187 -67 22 C-62.58058487 19.63978604 -58.15653394 17.99426788 -53.375 16.5625 C-43.19532169 13.43428147 -33.09907203 10.06461473 -23 6.6875 C-22.18488953 6.41511505 -21.36977905 6.1427301 -20.52996826 5.86209106 C-16.8008402 4.6158441 -13.07202693 3.368664 -9.34375 2.11987305 C-3.01417048 0 -3.01417048 0 0 0 Z " fill="#5FEEBF" transform="translate(371,78)"/>
<path d="M0 0 C0.96728516 1.77832031 0.96728516 1.77832031 1.7890625 4.078125 C2.09070313 4.90957031 2.39234375 5.74101562 2.703125 6.59765625 C3.00734375 7.47292969 3.3115625 8.34820312 3.625 9.25 C3.93695313 10.10980469 4.24890625 10.96960938 4.5703125 11.85546875 C6.56139846 17.42536009 8.12715269 22.66690562 8.25 28.625 C8.27578125 29.38039063 8.3015625 30.13578125 8.328125 30.9140625 C8 33 8 33 6.91796875 34.73828125 C2.32419672 37.76025348 -4.70079309 36.78669462 -10 36 C-20.78108194 32.71544098 -30.68366665 24.24674762 -37 15 C-36 12 -36 12 -32.90478516 10.45019531 C-31.53775417 9.89729171 -30.16539131 9.35745962 -28.7890625 8.828125 C-28.06512299 8.54144958 -27.34118347 8.25477417 -26.5953064 7.95941162 C-25.06243226 7.35563777 -23.52733014 6.75749478 -21.99023438 6.16455078 C-19.63553004 5.25407159 -17.29031395 4.32186318 -14.9453125 3.38671875 C-13.45624684 2.80336436 -11.96667904 2.22128977 -10.4765625 1.640625 C-9.77334869 1.36051575 -9.07013489 1.08040649 -8.34561157 0.79180908 C-3.345535 -1.11517833 -3.345535 -1.11517833 0 0 Z " fill="#D3E7F0" transform="translate(263,408)"/>
<path d="M0 0 C-1.379678 3.7591779 -3.10817624 6.95972206 -5.2734375 10.32421875 C-5.92642822 11.34338379 -6.57941895 12.36254883 -7.25219727 13.41259766 C-12.36905872 21.30651135 -12.36905872 21.30651135 -14.91105652 25.20794678 C-16.97502539 28.38424934 -18.97674265 31.58729819 -20.91796875 34.83984375 C-26.87056801 44.60958556 -34.05718551 52.58300376 -42.125 60.625 C-42.64675812 61.14547913 -43.16851624 61.66595825 -43.70608521 62.20220947 C-52.58093285 71 -52.58093285 71 -55 71 C-56.17004806 55.34735707 -50.99249576 42.95131352 -41 31 C-33.08989273 21.91116324 -12.83744253 0 0 0 Z " fill="#D3E8F1" transform="translate(93,259)"/>
<path d="M0 0 C3.19176653 1.29590521 5.41996089 2.83992178 7 6 C7.02058375 8.98464412 6.99430626 11.95431944 6.9375 14.9375 C6.86541824 21.36659238 7.18560355 27.26788466 8.5390625 33.57421875 C9.58818503 39.09544832 9.98304489 44.03391022 7.4375 49.125 C5 51 5 51 1.625 51.75 C-2.70243497 50.85466863 -3.99423338 49.7476643 -6.59375 46.3046875 C-9.35585844 41.77789867 -11.20555401 36.97523655 -13 32 C-13.39574219 30.94167969 -13.79148437 29.88335937 -14.19921875 28.79296875 C-16.95937151 20.78368338 -19.02791859 12.16218357 -16.29296875 3.8515625 C-12.73957952 -1.81788998 -5.7757001 -0.93660002 0 0 Z " fill="#FEFEFE" transform="translate(107,324)"/>
<path d="M0 0 C3 1.5 3 1.5 5 4 C6.09561475 8.63529317 5.64894452 10.78023942 3.41015625 14.98828125 C2.01905863 17.21777552 0.60899548 19.41508264 -0.83984375 21.60546875 C-3.50544485 25.66995485 -5.49164611 30.01312139 -7.48046875 34.44140625 C-9.26890437 37.45278242 -11.09332305 39.06668031 -14 41 C-18.285698 41.61224257 -20.226344 41.50455826 -23.875 39.125 C-26.81878906 36.18121094 -27.19176589 34.49797873 -27.3125 30.4375 C-27.23997887 24.8291989 -25.73080395 20.84058395 -23 16 C-22.57589844 15.23558594 -22.15179688 14.47117187 -21.71484375 13.68359375 C-16.74624745 5.50409398 -10.18734448 -1.86767982 0 0 Z " fill="#FEFEFE" transform="translate(121,264)"/>
<path d="M0 0 C5.39152359 0.65010333 10.09144274 2.38439163 15.125 4.3125 C21.6913734 6.78676727 28.25836737 9.14324722 34.9453125 11.2734375 C37 12 37 12 38 13 C38.69621745 21.49385293 37.21714034 30.08726175 31.6875 36.8125 C27.924195 38.4753557 25.92819312 38.17156637 22 37 C13.36660792 31.60412995 9.09824737 21.43542255 4.625 12.625 C4.27904785 11.94719482 3.9330957 11.26938965 3.57666016 10.57104492 C1.84525699 7.07399201 0.52419532 3.87904539 0 0 Z " fill="#D3E7F0" transform="translate(101,408)"/>
<path d="M0 0 C1.97929118 2.96893676 3.02741785 5.51620619 4.1875 8.875 C4.55230469 9.90367187 4.91710937 10.93234375 5.29296875 11.9921875 C6.06666497 15.28360236 6.16335347 16.8408936 5 20 C-0.26428675 26.95090289 -6.89933276 32.98615437 -13.25 38.9375 C-13.81549561 39.46859375 -14.38099121 39.9996875 -14.96362305 40.546875 C-18.7689092 44.04802633 -22.74178286 47.06572093 -27 50 C-35 40.57142857 -35 40.57142857 -35 36 C-33.52552909 34.71558563 -31.99121211 33.49983458 -30.4375 32.3125 C-19.65410761 23.67464047 -6.27769157 12.55538314 0 0 Z " fill="#A8D6E8" transform="translate(327,255)"/>
<path d="M0 0 C1.32 4.29 2.64 8.58 4 13 C-11.14673338 18.58960494 -26.56489014 23.2839352 -42 28 C-42.70304222 26.27709395 -43.38683491 24.54632534 -44.0625 22.8125 C-44.44535156 21.84957031 -44.82820313 20.88664062 -45.22265625 19.89453125 C-46.05622133 16.79065325 -45.88679818 15.05080883 -45 12 C-39.39991535 10.11503777 -33.79491954 8.24579602 -28.18481445 6.39086914 C-26.27746153 5.75778685 -24.37151599 5.12044773 -22.46704102 4.47875977 C-19.72772223 3.55660577 -16.98369035 2.64992923 -14.23828125 1.74609375 C-13.38913651 1.45657333 -12.53999176 1.16705292 -11.66511536 0.86875916 C-10.46443672 0.4782412 -10.46443672 0.4782412 -9.23950195 0.07983398 C-8.54000931 -0.15333023 -7.84051666 -0.38649445 -7.11982727 -0.62672424 C-5 -1 -5 -1 0 0 Z " fill="#38E8AE" transform="translate(406,255)"/>
<path d="M0 0 C0.67220351 1.93558599 1.33758077 3.87354372 2 5.8125 C2.37125 6.89144531 2.7425 7.97039062 3.125 9.08203125 C4 12 4 12 4 15 C-0.51593578 16.51363352 -5.03256242 18.02518207 -9.54980469 19.53491211 C-11.0822167 20.04737875 -12.6144478 20.56038668 -14.14648438 21.07397461 C-37.79336052 29 -37.79336052 29 -42 29 C-42.67220351 27.06441401 -43.33758077 25.12645628 -44 23.1875 C-44.37125 22.10855469 -44.7425 21.02960938 -45.125 19.91796875 C-46 17 -46 17 -46 14 C-40.09462611 11.99774186 -34.18613905 10.00489046 -28.27539062 8.01855469 C-26.26489475 7.34168342 -24.25512209 6.66266006 -22.24609375 5.98144531 C-19.35864584 5.00279449 -16.46868765 4.03190635 -13.578125 3.0625 C-12.68007141 2.75626709 -11.78201782 2.45003418 -10.85675049 2.13452148 C-10.01618103 1.85423096 -9.17561157 1.57394043 -8.30957031 1.28515625 C-7.20370575 0.91209351 -7.20370575 0.91209351 -6.07550049 0.53149414 C-4 0 -4 0 0 0 Z " fill="#38E7AD" transform="translate(399,233)"/>
<path d="M0 0 C0.70088156 1.74468372 1.38524009 3.49601161 2.0625 5.25 C2.44535156 6.22453125 2.82820313 7.1990625 3.22265625 8.203125 C4.04156918 11.14956549 4.12537374 12.22026172 3 15 C1.39483643 15.96781921 1.39483643 15.96781921 -0.70605469 16.6315918 C-1.88297882 17.01670174 -1.88297882 17.01670174 -3.0836792 17.40959167 C-3.93778381 17.67016861 -4.79188843 17.93074554 -5.671875 18.19921875 C-6.54644348 18.47973587 -7.42101196 18.76025299 -8.32208252 19.04927063 C-11.12669909 19.94431617 -13.93807096 20.81573477 -16.75 21.6875 C-18.63067428 22.28564632 -20.51088938 22.88523845 -22.390625 23.48632812 C-37.2027058 28.19010672 -37.2027058 28.19010672 -42 29 C-42.67220351 27.06441401 -43.33758077 25.12645628 -44 23.1875 C-44.37125 22.10855469 -44.7425 21.02960938 -45.125 19.91796875 C-46 17 -46 17 -46 14 C-13.98583984 3.32861328 -13.98583984 3.32861328 -11.91815186 2.64459229 C-10.17819747 2.05988301 -8.44894615 1.44356087 -6.72119141 0.82373047 C-4 0 -4 0 0 0 Z " fill="#38E8AE" transform="translate(434,159)"/>
<path d="M0 0 C1.36328125 2.43359375 1.36328125 2.43359375 2.3125 5.4375 C2.80169922 6.92056641 2.80169922 6.92056641 3.30078125 8.43359375 C4 11 4 11 4 13 C2.25203125 13.51046875 2.25203125 13.51046875 0.46875 14.03125 C-10.53752567 17.27561178 -21.4422288 20.75426366 -32.30273438 24.45898438 C-33.27791016 24.78962891 -34.25308594 25.12027344 -35.2578125 25.4609375 C-36.1255127 25.75790527 -36.99321289 26.05487305 -37.88720703 26.36083984 C-40 27 -40 27 -42 27 C-42.70088156 25.25531628 -43.38524009 23.50398839 -44.0625 21.75 C-44.44535156 20.77546875 -44.82820313 19.8009375 -45.22265625 18.796875 C-46.04182955 15.84949772 -46.12464825 14.78080562 -45 12 C-43.39483643 11.01872253 -43.39483643 11.01872253 -41.29394531 10.33666992 C-40.50932922 10.07347458 -39.72471313 9.81027924 -38.9163208 9.53910828 C-37.63516388 9.13883171 -37.63516388 9.13883171 -36.328125 8.73046875 C-35.01627228 8.30257805 -35.01627228 8.30257805 -33.67791748 7.86604309 C-31.82431141 7.2657235 -29.96802437 6.6736296 -28.109375 6.08911133 C-25.26867263 5.19338781 -22.43902027 4.2678777 -19.609375 3.33789062 C-17.80787248 2.7586073 -16.00580566 2.18107534 -14.203125 1.60546875 C-13.35711731 1.32849655 -12.51110962 1.05152435 -11.63946533 0.76615906 C-3.97643901 -1.61221346 -3.97643901 -1.61221346 0 0 Z " fill="#39E9AF" transform="translate(359,112)"/>
<path d="M0 0 C0.67220351 1.93558599 1.33758077 3.87354372 2 5.8125 C2.37125 6.89144531 2.7425 7.97039062 3.125 9.08203125 C4 12 4 12 4 15 C-1.231535 16.71271847 -6.4642956 18.42161848 -11.69824219 20.12695312 C-13.47951127 20.70792889 -15.26043763 21.2899565 -17.04101562 21.87304688 C-19.59676707 22.7097851 -22.15371716 23.5427635 -24.7109375 24.375 C-25.90944839 24.76872803 -25.90944839 24.76872803 -27.13217163 25.17041016 C-32.77225659 27 -32.77225659 27 -35 27 C-33.20889114 22.21791325 -30.77418613 17.94534898 -28.2421875 13.5234375 C-26.77917519 11.02017428 -26.77917519 11.02017428 -27 8 C-23.06495351 6.65934762 -19.12658354 5.32873929 -15.1875 4 C-14.06794922 3.6184375 -12.94839844 3.236875 -11.79492188 2.84375 C-10.72177734 2.4828125 -9.64863281 2.121875 -8.54296875 1.75 C-7.55321045 1.41484375 -6.56345215 1.0796875 -5.54370117 0.734375 C-3 0 -3 0 0 0 Z " fill="#38E8AE" transform="translate(371,78)"/>
<path d="M0 0 C-1.70646951 3.58422374 -3.41548473 7.16722805 -5.125 10.75 C-5.62547852 11.80082764 -6.12595703 12.85165527 -6.64160156 13.93432617 C-9.70507617 20.34965497 -12.83560356 26.70985835 -16.171875 32.98828125 C-16.44515625 33.65214844 -16.7184375 34.31601563 -17 35 C-16.67 35.66 -16.34 36.32 -16 37 C-24.91 39.475 -24.91 39.475 -34 42 C-32.43101548 37.29304645 -30.82196448 33.50702121 -28.5234375 29.17578125 C-27.8462848 27.88740625 -27.16920353 26.5989937 -26.4921875 25.31054688 C-25.42964532 23.30163182 -24.36507411 21.2938169 -23.29882812 19.28686523 C-22.26436001 17.33584889 -21.23733536 15.38105202 -20.2109375 13.42578125 C-19.59524902 12.26473877 -18.97956055 11.10369629 -18.34521484 9.9074707 C-16.79004572 7.08014846 -16.79004572 7.08014846 -17 4 C-14.54453034 3.13670227 -12.08621957 2.28410564 -9.625 1.4375 C-8.92632812 1.19064453 -8.22765625 0.94378906 -7.5078125 0.68945312 C-2.2265625 -1.11328125 -2.2265625 -1.11328125 0 0 Z " fill="#315568" transform="translate(384,169)"/>
<path d="M0 0 C0.99 0.66 1.98 1.32 3 2 C2.8125 4.3125 2.8125 4.3125 2 7 C-1.64399381 9.56948282 -5.54263188 11.0376037 -9.6875 12.625 C-17.53824026 15.81642487 -23.02809198 20.71244366 -28.76953125 26.91015625 C-32.50453016 30.90991457 -32.50453016 30.90991457 -35.75 31.5 C-38 31 -38 31 -40 29 C-40.63122542 24.58142203 -39.3019914 22.29789048 -36.75 18.75 C-27.93950604 7.19499819 -15.03736869 -2.12002247 0 0 Z " fill="#FEFEFE" transform="translate(145,125)"/>
<path d="M0 0 C0.66 0 1.32 0 2 0 C3.34046394 6.5610263 2.7163048 9.97397523 -0.48828125 15.76953125 C-0.86229065 16.48398407 -1.23630005 17.19843689 -1.62164307 17.93453979 C-2.83304574 20.23777951 -4.07212114 22.52475653 -5.3125 24.8125 C-6.15345483 26.39786789 -6.99256091 27.9842178 -7.82983398 29.5715332 C-9.47041417 32.67486867 -11.12137683 35.77224866 -12.78320312 38.86425781 C-15.02292944 43.03364907 -17.21214114 47.22796404 -19.38818359 51.4309082 C-20.87210805 54.28244953 -22.39143548 57.11426173 -23.91308594 59.94580078 C-25.08845984 62.16718353 -26.21964471 64.40853799 -27.3515625 66.65234375 C-28.12926347 68.14372226 -28.9078722 69.63462785 -29.6875 71.125 C-30.02015869 71.80780029 -30.35281738 72.49060059 -30.69555664 73.1940918 C-31.69921875 75.0703125 -31.69921875 75.0703125 -34 78 C-37.76953125 78.9296875 -37.76953125 78.9296875 -41 79 C-39.72447253 74.87684512 -38.18067619 71.20379836 -36.12109375 67.4140625 C-35.53779297 66.33390869 -34.95449219 65.25375488 -34.35351562 64.14086914 C-34.04196533 63.56917999 -33.73041504 62.99749084 -33.40942383 62.40847778 C-32.07278967 59.95575747 -30.74653978 57.49747228 -29.41958618 55.039505 C-28.71404277 53.73281116 -28.00795784 52.42640958 -27.30136108 51.12028503 C-23.15801939 43.45715601 -19.07972763 35.75962325 -15 28.0625 C-10.03173025 18.69098782 -5.04095718 9.33266271 0 0 Z " fill="#022C44" transform="translate(413,76)"/>
<path d="M0 0 C0.96728516 1.77832031 0.96728516 1.77832031 1.7890625 4.078125 C2.09070313 4.90957031 2.39234375 5.74101562 2.703125 6.59765625 C3.15945313 7.91056641 3.15945313 7.91056641 3.625 9.25 C3.93695313 10.10980469 4.24890625 10.96960938 4.5703125 11.85546875 C6.56139846 17.42536009 8.12715269 22.66690562 8.25 28.625 C8.27578125 29.38039063 8.3015625 30.13578125 8.328125 30.9140625 C8 33 8 33 6.9453125 34.75390625 C3.90606498 36.70073348 1.18638529 36.35797938 -2.375 36.3125 C-4.33566406 36.30669922 -4.33566406 36.30669922 -6.3359375 36.30078125 C-9.6996131 36.02465863 -11.98982966 35.45859605 -15 34 C-15 33.67 -15 33.34 -15 33 C-12.94921875 32.77213542 -10.8984375 32.54427083 -8.84765625 32.31640625 C-6.98859771 32.18113386 -6.98859771 32.18113386 -6 31 C-4.91060134 22.25368505 -6.91506114 15.12002425 -9.90625 7.0546875 C-11 4 -11 4 -11 2 C-9.73392393 1.46770674 -8.46189588 0.94955456 -7.1875 0.4375 C-6.47980469 0.14746094 -5.77210938 -0.14257812 -5.04296875 -0.44140625 C-3 -1 -3 -1 0 0 Z " fill="#A8D6E8" transform="translate(263,408)"/>
<path d="M0 0 C2 1 2 1 3.03515625 3.6171875 C3.54369141 5.22980469 3.54369141 5.22980469 4.0625 6.875 C4.57490234 8.47988281 4.57490234 8.47988281 5.09765625 10.1171875 C5.39542969 11.06851563 5.69320313 12.01984375 6 13 C6.33 13.99 6.66 14.98 7 16 C5.86010742 18.84741211 5.86010742 18.84741211 4.10546875 22.27734375 C3.79805252 22.88510147 3.49063629 23.49285919 3.17390442 24.11903381 C2.18771839 26.06341269 1.1878915 28.00039794 0.1875 29.9375 C-0.475525 31.23846606 -1.13764527 32.53989363 -1.79882812 33.84179688 C-3.0176258 36.23856391 -4.24262093 38.63175793 -5.47192383 41.02319336 C-6.66229836 43.34213196 -7.84073023 45.66542385 -9 48 C-15.91427799 32.22931314 -15.91427799 32.22931314 -14.49755859 25.67578125 C-12.69207071 21.33549509 -10.03286779 17.59218995 -7.26416016 13.81640625 C-5.31628522 11.01760564 -3.91330095 8.07368761 -2.4375 5 C-1.96183594 4.030625 -1.48617188 3.06125 -0.99609375 2.0625 C-0.66738281 1.381875 -0.33867187 0.70125 0 0 Z " fill="#315469" transform="translate(348,212)"/>
<path d="M0 0 C-1.20333655 6.66177037 -2.7132407 12.62977407 -7 18 C-12.61829263 21.29878903 -20.42284303 24 -27 24 C-27.67220351 22.06441401 -28.33758077 20.12645628 -29 18.1875 C-29.37125 17.10855469 -29.7425 16.02960938 -30.125 14.91796875 C-31 12 -31 12 -31 9 C-26.77526691 7.48730327 -22.5445525 5.99208415 -18.3125 4.5 C-17.11431641 4.07074219 -15.91613281 3.64148438 -14.68164062 3.19921875 C-13.52470703 2.79316406 -12.36777344 2.38710937 -11.17578125 1.96875 C-9.58117065 1.40317383 -9.58117065 1.40317383 -7.9543457 0.82617188 C-5.13313528 0.03723079 -2.90811607 -0.16926787 0 0 Z " fill="#5FEEBF" transform="translate(392,150)"/>
<path d="M0 0 C-1.8960287 5.16917298 -4.57897054 9.85391606 -7.25390625 14.6484375 C-9.43914218 18.58940137 -9.43914218 18.58940137 -10 23 C-13.95426641 24.36625373 -17.91398949 25.71593627 -21.875 27.0625 C-23.56689453 27.64741211 -23.56689453 27.64741211 -25.29296875 28.24414062 C-26.36933594 28.60830078 -27.44570313 28.97246094 -28.5546875 29.34765625 C-29.54968262 29.68804932 -30.54467773 30.02844238 -31.56982422 30.37915039 C-34 31 -34 31 -36 30 C-30.35424043 22.65028885 -24.70169826 15.30648089 -19 8 C-19.33 7.34 -19.66 6.68 -20 6 C-17.04329782 4.99513105 -14.08438423 3.99693976 -11.125 3 C-10.28324219 2.71382813 -9.44148438 2.42765625 -8.57421875 2.1328125 C-7.76855469 1.86210938 -6.96289062 1.59140625 -6.1328125 1.3125 C-5.38918457 1.06113281 -4.64555664 0.80976562 -3.87939453 0.55078125 C-2 0 -2 0 0 0 Z " fill="#31556A" transform="translate(358,63)"/>
<path d="M0 0 C1.64696604 0.4752588 3.29254728 0.95531891 4.9375 1.4375 C6.31228516 1.83775391 6.31228516 1.83775391 7.71484375 2.24609375 C10 3 10 3 11 4 C11.69621745 12.49385293 10.21714034 21.08726175 4.6875 27.8125 C0.98030494 29.45056293 -1.13745692 29.1236489 -5 28 C-7.4375 25.9375 -7.4375 25.9375 -9 24 C-8.236875 23.505 -7.47375 23.01 -6.6875 22.5 C-0.55428416 16.79468294 -0.40361539 8.91921237 0 1 C0 0.67 0 0.34 0 0 Z " fill="#A7D5E7" transform="translate(128,417)"/>
<path d="M0 0 C0.33 0.66 0.66 1.32 1 2 C1.84304687 1.97679688 2.68609375 1.95359375 3.5546875 1.9296875 C5.19824219 1.90261719 5.19824219 1.90261719 6.875 1.875 C8.51082031 1.84019531 8.51082031 1.84019531 10.1796875 1.8046875 C13 2 13 2 15 4 C15.4140625 6.1640625 15.4140625 6.1640625 15.625 8.625 C15.69976562 9.44226563 15.77453125 10.25953125 15.8515625 11.1015625 C15.92503906 12.04128906 15.92503906 12.04128906 16 13 C13.54724859 14.2263757 11.9494219 14.11415314 9.2109375 14.09765625 C8.26992187 14.09443359 7.32890625 14.09121094 6.359375 14.08789062 C5.37453125 14.07951172 4.3896875 14.07113281 3.375 14.0625 C1.88613281 14.05573242 1.88613281 14.05573242 0.3671875 14.04882812 C-2.0886016 14.03702145 -4.54427104 14.020554 -7 14 C-7.02687279 12.18757948 -7.04633715 10.37504767 -7.0625 8.5625 C-7.07410156 7.55316406 -7.08570313 6.54382813 -7.09765625 5.50390625 C-7 3 -7 3 -6 2 C-4.00041636 1.95919217 -1.99954746 1.95745644 0 2 C0 1.34 0 0.68 0 0 Z " fill="#AAD6E7" transform="translate(188,102)"/>
<path d="M0 0 C-0.84884766 1.57201172 -0.84884766 1.57201172 -1.71484375 3.17578125 C-2.45585288 4.55462102 -3.1967315 5.93353094 -3.9375 7.3125 C-4.31068359 8.00279297 -4.68386719 8.69308594 -5.06835938 9.40429688 C-5.42607422 10.07138672 -5.78378906 10.73847656 -6.15234375 11.42578125 C-6.48226318 12.03848877 -6.81218262 12.65119629 -7.15209961 13.2824707 C-8.1323561 15.16973938 -8.1323561 15.16973938 -9 18 C-10.65 18.33 -12.3 18.66 -14 19 C-14.67220351 17.06441401 -15.33758077 15.12645628 -16 13.1875 C-16.37125 12.10855469 -16.7425 11.02960938 -17.125 9.91796875 C-18 7 -18 7 -18 4 C-15.75438718 3.13237686 -13.50473745 2.2807897 -11.25 1.4375 C-10.61578125 1.19064453 -9.9815625 0.94378906 -9.328125 0.68945312 C-5.74085674 -0.63708878 -3.63219845 -1.14462959 0 0 Z " fill="#3BE9AF" transform="translate(379,155)"/>
<path d="M0 0 C3.05623277 2.09110663 3.86463014 3.29306849 4.5625 6.9375 C3.80057749 11.08574477 2.36344489 12.51397551 -1 15 C-4.0625 15.625 -4.0625 15.625 -7 15 C-9.88629588 12.41752474 -10.86270511 10.74749439 -11.5625 6.9375 C-11 4 -11 4 -8.875 1.625 C-5.50335677 -0.28071139 -3.80994895 -0.64850195 0 0 Z " fill="#37E4AC" transform="translate(233,168)"/>
<path d="M0 0 C2.375 1.5625 2.375 1.5625 4 4 C4.56783945 7.97487617 4.62340519 10.06489221 2.375 13.4375 C-0.75683492 15.49791771 -2.31544773 15.6767545 -6 15 C-8.9375 12.9375 -8.9375 12.9375 -11 10 C-11.06641554 6.14789873 -10.87229157 4.00151995 -8.3125 1.0625 C-5.26397123 -0.33817538 -3.32073048 -0.4842732 0 0 Z " fill="#37E4AC" transform="translate(137,168)"/>
<path d="M0 0 C-2.97 5.94 -5.94 11.88 -9 18 C-9.99 17.67 -10.98 17.34 -12 17 C-13.16796875 14.34765625 -13.16796875 14.34765625 -14.1875 11.0625 C-14.53167969 9.98097656 -14.87585938 8.89945313 -15.23046875 7.78515625 C-16 5 -16 5 -16 3 C-14.08802961 2.29954544 -12.17019565 1.615081 -10.25 0.9375 C-9.18265625 0.55464844 -8.1153125 0.17179688 -7.015625 -0.22265625 C-4 -1 -4 -1 0 0 Z " fill="#5EECBD" transform="translate(365,208)"/>
<path d="M0 0 C0.99 0.33 1.98 0.66 3 1 C3.433125 2.6396875 3.433125 2.6396875 3.875 4.3125 C5.16583278 8.54356301 6.29687834 9.70759135 10 12 C17.29525837 14.2469995 25.22961796 13.52565538 32 10 C34.62257789 6.88568875 35.4290714 3.99650023 36 0 C36.99 0.33 37.98 0.66 39 1 C38.38512492 5.18115052 37.33679638 8.45711517 35 12 C28.87695128 16.11677318 22.35238022 17.74724735 15 17 C9.23550503 15.55622225 4.17939103 13.11341575 0.6875 8.125 C-0.20774213 5.35788795 -0.13126019 2.88772424 0 0 Z " fill="#33D7A4" transform="translate(165,192)"/>
<path d="M0 0 C-0.67095703 0.74443359 -0.67095703 0.74443359 -1.35546875 1.50390625 C-6.03016858 6.75671395 -10.09832603 12.14748904 -14 18 C-15.32 13.71 -16.64 9.42 -18 5 C-14.04095472 3.02047736 -10.86997975 1.48852152 -6.75 0.25 C-5.89921875 -0.01296875 -5.0484375 -0.2759375 -4.171875 -0.546875 C-2 -1 -2 -1 0 0 Z " fill="#38E2AB" transform="translate(322,95)"/>
<path d="M0 0 C-2.97 5.61 -5.94 11.22 -9 17 C-11.16099373 14.83900627 -11.71563716 13.4789582 -12.6875 10.625 C-12.95949219 9.85414063 -13.23148437 9.08328125 -13.51171875 8.2890625 C-14.06282069 5.70549658 -14.11933491 4.39784129 -13 2 C-11.07421875 0.91796875 -11.07421875 0.91796875 -8.6875 0.1875 C-7.90761719 -0.06644531 -7.12773437 -0.32039063 -6.32421875 -0.58203125 C-4 -1 -4 -1 0 0 Z " fill="#5EEABD" transform="translate(327,122)"/>
<path d="M0 0 C0.66 0 1.32 0 2 0 C3.32 4.29 4.64 8.58 6 13 C-4.625 17.125 -4.625 17.125 -8 16 C-5.36 10.72 -2.72 5.44 0 0 Z " fill="#5DEABC" transform="translate(404,255)"/>
<path d="M0 0 C2 1 2 1 3.125 3.75 C3.91973395 6.70186896 4.17810598 8.97219837 4 12 C-2.5 15 -2.5 15 -7 15 C-5.45454854 9.52067211 -2.84456788 4.88570819 0 0 Z " fill="#5EEABD" transform="translate(441,184)"/>
<path d="M0 0 C-1.21934486 4.03321763 -2.55954927 7.54269479 -5 11 C-5.66 11 -6.32 11 -7 11 C-7.66 8.03 -8.32 5.06 -9 2 C-5.62902617 0.50178941 -3.79557881 0 0 0 Z " fill="#5EECBD" transform="translate(370,157)"/>
<path d="M0 0 C0.66 0.33 1.32 0.66 2 1 C2.60235294 8.22823529 2.60235294 8.22823529 0 11.5625 C-4.22073816 13.58493704 -6.47048522 13.05688678 -11 12 C-11.33 11.34 -11.66 10.68 -12 10 C-10.741875 9.896875 -9.48375 9.79375 -8.1875 9.6875 C-5.6939539 9.36148867 -4.22140279 9.13569848 -2.0625 7.8125 C-0.5847343 5.29160556 -0.31972654 2.8775389 0 0 Z " fill="#ACD7E7" transform="translate(185,62)"/>
<path d="M0 0 C1.65 0 3.3 0 5 0 C4.67 1.32 4.34 2.64 4 4 C2.35 4.33 0.7 4.66 -1 5 C-0.67 3.35 -0.34 1.7 0 0 Z " fill="#FBFDFD" transform="translate(175,63)"/>
<path d="M0 0 C0.99 0.33 1.98 0.66 3 1 C2.45276317 4.37462715 1.9451 6.08235 0 9 C-0.66 9 -1.32 9 -2 9 C-1.34 6.03 -0.68 3.06 0 0 Z " fill="#31CFA0" transform="translate(201,192)"/>
</svg>
